<?xml version="1.0" encoding="UTF-8"?>
<svg version="1.1" xmlns="http://www.w3.org/2000/svg" width="1536" height="1024">
<path d="M0 0 C506.88 0 1013.76 0 1536 0 C1536 337.92 1536 675.84 1536 1024 C1029.12 1024 522.24 1024 0 1024 C0 686.08 0 348.16 0 0 Z " fill="#FDFDFD" transform="translate(0,0)"/>
<path d="M0 0 C1.38445312 0.69416016 1.38445312 0.69416016 2.796875 1.40234375 C13.95539165 7.53242057 23.74645958 17.61424894 31 28 C31 28.66 31 29.32 31 30 C31.87011719 29.60167969 31.87011719 29.60167969 32.7578125 29.1953125 C48.40045471 22.12256668 63.95952565 20.59048492 80.20703125 26.45703125 C97.62657208 33.28366731 109.51489186 45.55490659 117.0546875 62.45703125 C117.98863033 64.96941464 118.5049788 67.37167318 119 70 C119.6705542 69.98428955 120.3411084 69.9685791 121.03198242 69.95239258 C124.0837351 69.88985342 127.13535268 69.85094937 130.1875 69.8125 C131.24259766 69.78736328 132.29769531 69.76222656 133.38476562 69.73632812 C134.40634766 69.72666016 135.42792969 69.71699219 136.48046875 69.70703125 C137.88655396 69.68346558 137.88655396 69.68346558 139.32104492 69.65942383 C143.27295904 70.16183157 145.86429774 72.00595523 148.81640625 74.58984375 C150.39432754 77.80297061 150.12248089 80.37105195 150.00805664 83.90454102 C149.61409393 92.75603068 149.61409393 92.75603068 153.4453125 100.375 C155.47008594 102.25533435 157.64201256 103.90599281 159.8515625 105.5625 C169.28978077 112.8695077 175.90249759 125.32977217 178 137 C179.62558228 153.11366793 177.93056749 168.75677807 167.765625 181.8828125 C166.89164063 182.93082031 166.89164063 182.93082031 166 184 C165.45859375 184.67804688 164.9171875 185.35609375 164.359375 186.0546875 C161.85353038 189.1047307 159.40868332 191.93044227 156 194 C155.34 194 154.68 194 154 194 C153.1462141 187.16971279 153.1462141 187.16971279 155.27734375 184.25 C155.84582031 183.6725 156.41429687 183.095 157 182.5 C160.75165604 178.66412311 163.01852076 174.57706021 165.375 169.8125 C165.89320313 168.77802734 165.89320313 168.77802734 166.421875 167.72265625 C171.50560603 157.2298354 171.76950966 143.67338768 169.1640625 132.375 C167.98320349 129.39511416 166.64349825 126.75107315 165 124 C164.38382813 122.95199219 163.76765625 121.90398437 163.1328125 120.82421875 C159.38830434 114.85777481 155.63559828 110.22669871 150 106 C150.03480469 106.86882812 150.06960938 107.73765625 150.10546875 108.6328125 C150.38838333 120.67689024 150.38838333 120.67689024 147 125 C143.38754136 126.79776057 140.43466392 127.25540941 136.42546082 127.2784729 C135.31633331 127.28963638 134.20720581 127.30079987 133.06446838 127.31230164 C131.85749802 127.31446182 130.65052765 127.31662201 129.40698242 127.31884766 C127.48931061 127.33391609 127.48931061 127.33391609 125.53289795 127.34928894 C122.03538437 127.37654956 118.53791099 127.39172659 115.0403192 127.40471697 C111.38208271 127.4203648 107.72392808 127.44714974 104.06575012 127.4727478 C97.14212586 127.51950638 90.21848615 127.5562646 83.29478484 127.58942068 C75.41085051 127.62766273 67.52699846 127.67706742 59.64313352 127.72740483 C43.4288148 127.83068123 27.2144504 127.91995555 11 128 C11.66 128.66 12.32 129.32 13 130 C13.42379153 134.52352938 13.37159203 139.06188932 13.37060547 143.60302734 C13.37497064 145.85982156 13.41125799 148.11464687 13.44921875 150.37109375 C13.4550886 151.80728498 13.45905687 153.2434855 13.4609375 154.6796875 C13.46915527 155.98663574 13.47737305 157.29358398 13.48583984 158.64013672 C12.92330019 162.53042348 12.06153713 163.63746995 9 166 C6.30276096 167.63469033 5.21879014 168 2 168 C2 168.66 2 169.32 2 170 C2.969375 170.12375 3.93875 170.2475 4.9375 170.375 C5.948125 170.58125 6.95875 170.7875 8 171 C8.33 171.66 8.66 172.32 9 173 C4.05 173.99 -0.9 174.98 -6 176 C-4.1591684 176.00142502 -2.31833679 176.00285004 -0.42172241 176.00431824 C16.91215068 176.02097551 34.24579073 176.06341316 51.57953835 176.13209057 C60.49136718 176.1667376 69.40304139 176.19209571 78.31494141 176.19555664 C86.08295209 176.19859694 93.85068736 176.21909615 101.61859167 176.26052457 C105.73138071 176.28185048 109.84377825 176.29445743 113.95662308 176.28615379 C117.82937494 176.27861084 121.70133372 176.2944452 125.57394028 176.32806015 C126.9936718 176.33629065 128.41348224 176.33604648 129.83320618 176.32659721 C141.89588796 176.25427258 141.89588796 176.25427258 145.82919312 179.41621399 C149.5177657 183.80650882 149.19116801 187.41913339 149.23828125 192.953125 C149.246353 193.84610291 149.25442474 194.73908081 149.26274109 195.65911865 C149.2765857 197.55218563 149.28730616 199.44527762 149.29516602 201.33837891 C149.3123498 204.2247701 149.35622842 207.11000722 149.40039062 209.99609375 C149.4105202 211.83592908 149.41903547 213.67577415 149.42578125 215.515625 C149.45204338 216.80499969 149.45204338 216.80499969 149.47883606 218.12042236 C149.45877084 223.70290448 148.64373033 226.71146294 145 231 C142.4316995 232.28415025 140.58715306 232.13925605 137.71029663 232.15821838 C136.0275489 232.17290161 136.0275489 232.17290161 134.31080627 232.18788147 C133.0743486 232.19363693 131.83789093 232.1993924 130.56396484 232.20532227 C129.26644791 232.21522186 127.96893097 232.22512146 126.63209534 232.23532104 C123.06829766 232.26239979 119.5044867 232.28339324 115.94064283 232.30332303 C112.21834856 232.3251643 108.49609538 232.35256207 104.77383423 232.37937927 C97.7226042 232.42933135 90.6713514 232.47426083 83.62007678 232.51740164 C75.59355386 232.56675255 67.56707216 232.62167862 59.54058909 232.67708123 C43.02709737 232.79093987 26.51356789 232.89777044 10 233 C10.72901772 233.88184715 10.72901772 233.88184715 11.47276306 234.7815094 C13.64018128 237.92993831 13.48646834 240.95747875 13.50390625 244.65234375 C13.51389145 245.38949112 13.52387665 246.12663849 13.53416443 246.88612366 C13.54931969 248.44184777 13.55639102 249.99766894 13.5559082 251.5534668 C13.56247168 253.92725914 13.61696938 256.29686924 13.67382812 258.66992188 C13.68263108 260.18488159 13.68858471 261.69986109 13.69140625 263.21484375 C13.7129628 263.9201976 13.73451935 264.62555145 13.75672913 265.35227966 C13.71806409 268.14816499 13.53895343 270.34890421 11.71871948 272.54788208 C8.74785892 275.09517712 5.71199974 276.79905891 2 278 C2.56589844 278.23074219 3.13179687 278.46148438 3.71484375 278.69921875 C4.44832031 279.02535156 5.18179687 279.35148437 5.9375 279.6875 C7.03384766 280.15736328 7.03384766 280.15736328 8.15234375 280.63671875 C10.6474982 282.47775237 10.52656089 284.02680236 11 287 C11.67052997 286.99631283 12.34105993 286.99262566 13.03190899 286.98882675 C29.34849554 286.90048369 45.66500632 286.83429438 61.98177624 286.79275131 C69.87245969 286.77212732 77.76298348 286.74400999 85.65356445 286.69824219 C92.53112419 286.65836924 99.40856829 286.632566 106.2862404 286.62364602 C109.92786715 286.61843198 113.56916311 286.606181 117.21068382 286.57707977 C121.27626586 286.5448533 125.34127308 286.54404087 129.40698242 286.54589844 C130.61395279 286.53151733 131.82092316 286.51713623 133.06446838 286.50231934 C141.22540995 286.54277836 141.22540995 286.54277836 145.2245636 288.90338135 C147.65572251 291.77434485 148.12660533 293.32892483 148.16113281 297.00317383 C148.17074036 297.82775589 148.1803479 298.65233795 148.19024658 299.50190735 C148.1966214 300.84094368 148.1966214 300.84094368 148.203125 302.20703125 C148.20882507 303.12457687 148.21452515 304.0421225 148.22039795 304.98747253 C148.22985433 306.93182215 148.23638446 308.87618784 148.24023438 310.82055664 C148.24992709 313.79016254 148.28093903 316.75907263 148.3125 319.72851562 C148.31903134 321.61718339 148.32428129 323.5058561 148.328125 325.39453125 C148.3404718 326.28114944 148.3528186 327.16776764 148.36553955 328.08125305 C148.34831574 332.86794072 148.17088522 336.14877692 145 340 C141.80141769 342.13238821 141.01635555 342.24864896 137.34931946 342.24050903 C135.91693436 342.24463303 135.91693436 342.24463303 134.45561218 342.24884033 C133.40976456 342.24164978 132.36391693 342.23445923 131.28637695 342.22705078 C130.1837854 342.22734283 129.08119385 342.22763489 127.94519043 342.22793579 C124.29280792 342.22654003 120.64062822 342.21096702 116.98828125 342.1953125 C114.45908215 342.19158325 111.9298816 342.18873586 109.40068054 342.18673706 C103.41898278 342.17987533 97.43737237 342.16410489 91.45570964 342.14403808 C84.64562274 342.12168777 77.83553236 342.11068784 71.02541792 342.10064721 C57.0168974 342.07973886 43.00846905 342.04305916 29 342 C29 351.9 29 361.8 29 372 C30.65 372.33 32.3 372.66 34 373 C37.33559328 375.24958617 39.63819061 377.16217353 41 381 C41 381.99 41 382.98 41 384 C69.38 384 97.76 384 127 384 C127.33 385.65 127.66 387.3 128 389 C127 390 127 390 123.6864624 390.10438538 C122.17865002 390.1006178 120.67084601 390.09148212 119.16308594 390.07836914 C117.4605109 390.07225119 115.75793517 390.06632464 114.05535889 390.06056213 C112.69415043 390.0535538 112.69415043 390.0535538 111.30544281 390.04640388 C106.51741089 390.02731394 101.72944942 390.04242928 96.94140625 390.05273438 C90.84006222 390.06499047 84.73941884 390.06666427 78.63818359 390.02416992 C73.71529715 389.99078152 68.7938005 389.99619491 63.87091827 390.02773857 C61.99384126 390.03266893 60.11667079 390.02335037 58.23973846 389.99952888 C55.60975362 389.96811786 52.98439992 389.98628746 50.35449219 390.01586914 C49.57922684 389.99488663 48.80396149 389.97390411 48.00520325 389.95228577 C45.51596251 389.93154575 45.51596251 389.93154575 42 391 C40.33511023 392.90883285 39.20288225 394.78532056 38.05638504 397.04045773 C36.28640464 400.32368429 34.37411069 401.50039525 31 403 C25.69487052 403.76013796 21.44084738 403.68112785 16.5625 401.375 C13.76797975 398.78495684 11.84383241 396.33308167 10 393 C10 392.01 10 391.02 10 390 C-18.71 390 -47.42 390 -77 390 C-77.33 388.68 -77.66 387.36 -78 386 C-75.44069538 383.44069538 -73.78195224 383.76436366 -70.29348755 383.75115967 C-69.49651459 383.75835022 -68.69954163 383.76554077 -67.87841797 383.77294922 C-67.03931885 383.77265717 -66.20021973 383.77236511 -65.33569336 383.77206421 C-62.55442056 383.77346067 -59.77341366 383.78903665 -56.9921875 383.8046875 C-55.06690619 383.80841651 -53.14162299 383.81126401 -51.21633911 383.81326294 C-46.1429523 383.82090824 -41.06967956 383.8405644 -35.99633789 383.8626709 C-30.82179304 383.88311005 -25.64722981 383.89226052 -20.47265625 383.90234375 C-10.31505398 383.92380946 -0.15753647 383.95795619 10 384 C10.17789062 382.84371094 10.17789062 382.84371094 10.359375 381.6640625 C11.46944127 377.0478113 14.88042689 374.75506094 18.6875 372.1875 C21 371 21 371 23 371 C23 361.43 23 351.86 23 342 C19.6887207 342.02094727 16.37744141 342.04189453 12.96582031 342.06347656 C2.03746276 342.12969239 -8.89090354 342.1739138 -19.81940842 342.20724869 C-26.44677065 342.22814226 -33.07392773 342.25649282 -39.70117188 342.30175781 C-46.09429191 342.3451515 -52.48721436 342.36912377 -58.88047028 342.37950897 C-61.32218793 342.38691192 -63.76389451 342.40136773 -66.20552826 342.42292023 C-69.62000582 342.45186718 -73.03366209 342.45595952 -76.44824219 342.45410156 C-77.46244232 342.46848267 -78.47664246 342.48286377 -79.52157593 342.49768066 C-86.3068158 342.45760818 -86.3068158 342.45760818 -89.62713623 340.26568604 C-91.18329671 337.6974989 -91.50590136 336.28166003 -91.51757812 333.29492188 C-91.53018677 332.36715942 -91.54279541 331.43939697 -91.55578613 330.48352051 C-91.54768921 329.48864624 -91.53959229 328.49377197 -91.53125 327.46875 C-91.53699036 325.92664856 -91.53699036 325.92664856 -91.54284668 324.35339355 C-91.54556674 322.18138652 -91.53819906 320.00934677 -91.52148438 317.83740234 C-91.50007695 314.51195271 -91.52128378 311.18866365 -91.546875 307.86328125 C-91.54423174 305.7525994 -91.53910681 303.64191889 -91.53125 301.53125 C-91.53934692 300.53637573 -91.54744385 299.54150146 -91.55578613 298.51647949 C-91.46196903 291.61327926 -91.46196903 291.61327926 -89.09179688 288.46679688 C-88.40150391 287.98275391 -87.71121094 287.49871094 -87 287 C-86.34 286.34 -85.68 285.68 -85 285 C-85.804375 284.525625 -86.60875 284.05125 -87.4375 283.5625 C-90 282 -90 282 -91 281 C-91.1136793 279.57378155 -91.15952684 278.14206084 -91.17700195 276.71142578 C-91.19625481 275.34463181 -91.19625481 275.34463181 -91.21589661 273.95022583 C-91.22328354 272.95860443 -91.23067047 271.96698303 -91.23828125 270.9453125 C-91.246353 269.9328244 -91.25442474 268.9203363 -91.26274109 267.87716675 C-91.27659934 265.7301404 -91.28731367 263.58309187 -91.29516602 261.43603516 C-91.31239144 258.1457364 -91.35626386 254.85643879 -91.40039062 251.56640625 C-91.41051582 249.48438242 -91.41903246 247.40235001 -91.42578125 245.3203125 C-91.44328934 244.33273956 -91.46079742 243.34516663 -91.47883606 242.32766724 C-91.47591049 241.41016693 -91.47298492 240.49266663 -91.4699707 239.54736328 C-91.47583694 238.73985626 -91.48170319 237.93234924 -91.48774719 237.10037231 C-91 235 -91 235 -88.97062683 233.21578979 C-88.32031998 232.81457916 -87.67001312 232.41336853 -87 232 C-87.8149292 231.20706543 -88.6298584 230.41413086 -89.46948242 229.59716797 C-92.89087269 225.4667567 -92.64245346 221.61809849 -92.48828125 216.4453125 C-92.48120651 215.54376434 -92.47413177 214.64221619 -92.46684265 213.71334839 C-92.43897892 210.8497014 -92.376257 207.9880503 -92.3125 205.125 C-92.28740669 203.17711168 -92.26459533 201.22919255 -92.24414062 199.28125 C-92.1934401 194.51945644 -92.09557877 189.76194683 -92 185 C-98.93 185 -105.86 185 -113 185 C-113 183.68 -113 182.36 -113 181 C-109.06316446 180.32936905 -105.12542943 179.66417499 -101.1875 179 C-100.06794922 178.80921875 -98.94839844 178.6184375 -97.79492188 178.421875 C-96.72177734 178.24140625 -95.64863281 178.0609375 -94.54296875 177.875 C-93.55321045 177.70742188 -92.56345215 177.53984375 -91.54370117 177.3671875 C-89 177 -89 177 -86 177 C-86 176.34 -86 175.68 -86 175 C-86.639375 174.690625 -87.27875 174.38125 -87.9375 174.0625 C-90 173 -90 173 -91 172 C-91.1031035 170.64000572 -91.1384888 169.27476875 -91.14526367 167.91088867 C-91.15164352 167.04296188 -91.15802338 166.1750351 -91.16459656 165.2808075 C-91.16570938 164.33607071 -91.1668222 163.39133392 -91.16796875 162.41796875 C-91.17296135 160.96938225 -91.17296135 160.96938225 -91.17805481 159.49153137 C-91.18312927 157.44284544 -91.18546298 155.3941512 -91.18530273 153.34545898 C-91.18748345 150.21128654 -91.20561776 147.07746919 -91.22460938 143.94335938 C-91.22754433 141.95573037 -91.22952844 139.9680997 -91.23046875 137.98046875 C-91.23765427 137.04180466 -91.24483978 136.10314056 -91.25224304 135.1360321 C-91.24916641 134.25864883 -91.24608978 133.38126556 -91.24291992 132.47729492 C-91.24434494 131.7075383 -91.24576996 130.93778168 -91.24723816 130.1446991 C-90.96874471 127.728872 -90.20095962 126.09770195 -89 124 C-89.66 123.34 -90.32 122.68 -91 122 C-91.27415466 119.96414185 -91.27415466 119.96414185 -91.30639648 117.43017578 C-91.32238388 116.48224152 -91.33837128 115.53430725 -91.35484314 114.55764771 C-91.36020584 113.53057709 -91.36556854 112.50350647 -91.37109375 111.4453125 C-91.38012222 110.39221893 -91.3891507 109.33912537 -91.39845276 108.25411987 C-91.41297999 106.02312066 -91.42184811 103.79207861 -91.42553711 101.56103516 C-91.43742888 98.14542874 -91.4865883 94.73163081 -91.53710938 91.31640625 C-91.54657361 89.15105051 -91.55380864 86.98568364 -91.55859375 84.8203125 C-91.57812607 83.79729034 -91.59765839 82.77426819 -91.61778259 81.72024536 C-91.61170486 80.76600677 -91.60562714 79.81176819 -91.59936523 78.82861328 C-91.60443588 77.99081329 -91.60950653 77.15301331 -91.61473083 76.28982544 C-90.6866162 72.83266925 -88.99024202 71.90047442 -86 70 C-83.15998329 69.62296975 -80.71563665 69.47529946 -77.88188171 69.51898193 C-77.06906622 69.51556423 -76.25625073 69.51214653 -75.41880447 69.50862527 C-72.69770709 69.50204144 -69.97759815 69.52403034 -67.2565918 69.54589844 C-65.30514041 69.54702681 -63.35368733 69.54639326 -61.40223694 69.54412842 C-56.10503269 69.54297994 -50.80819014 69.5665111 -45.51107001 69.59442425 C-39.97507542 69.61941549 -34.4390727 69.62177811 -28.9030304 69.62652588 C-18.41999055 69.63896233 -7.93711739 69.67179309 2.54584903 69.71192384 C14.48041814 69.75662064 26.41499517 69.77862334 38.34962714 69.79870558 C62.89984387 69.84052505 87.4499126 69.91089022 112 70 C110.76584781 67.44505202 109.52245181 64.89532839 108.2734375 62.34765625 C107.75608032 61.27288025 107.75608032 61.27288025 107.22827148 60.1763916 C100.85979187 47.25081886 89.65126722 37.69123352 76 33 C70.420717 31.38433263 65.42337374 30.64174954 59.625 30.6875 C58.88113037 30.69241455 58.13726074 30.6973291 57.37084961 30.70239258 C48.20015638 30.89713125 41.13830662 33.65347361 33.12890625 38.01171875 C31 39 31 39 28 39 C26.4921875 36.7265625 26.4921875 36.7265625 24.875 33.625 C14.83409128 15.82330557 -1.68043224 5.74640853 -20.8125 -0.375 C-37.98150735 -4.56083237 -54.90450501 -3.03146422 -71 4 C-72.47339844 4.60908203 -72.47339844 4.60908203 -73.9765625 5.23046875 C-87.80697877 11.50339749 -100.11506467 23.57763396 -107 37 C-107.37769531 37.69351563 -107.75539063 38.38703125 -108.14453125 39.1015625 C-113.15802489 49.12854977 -114.33301181 60.93719582 -115 72 C-115.55945313 72.06316406 -116.11890625 72.12632812 -116.6953125 72.19140625 C-131.29804938 74.4217278 -144.46355954 83.13310513 -154.0078125 94.19140625 C-158.63718825 100.71791834 -162.47198228 108.41594685 -165 116 C-166.98 116 -168.96 116 -171 116 C-170.73284022 102.64201113 -161.53344534 90.38890008 -152.3515625 81.41015625 C-143.3660195 73.40025532 -133.43619806 68.63720061 -122 65 C-121.76216797 63.15148437 -121.76216797 63.15148437 -121.51953125 61.265625 C-119.54230336 46.85781617 -116.04285486 35.63429422 -107 24 C-106.28457031 23.06929688 -105.56914063 22.13859375 -104.83203125 21.1796875 C-90.73377952 3.36881527 -72.34349737 -6.5860252 -49.90234375 -9.71875 C-32.02069893 -11.4515608 -15.89213209 -8.10358718 0 0 Z " fill="#154175" transform="translate(1120,308)"/>
<path d="M0 0 C-0.66 0 -1.32 0 -2 0 C-1.67 14.85 -1.34 29.7 -1 45 C-0.01 43.68 0.98 42.36 2 41 C2.33 42.65 2.66 44.3 3 46 C77.91 46 152.82 46 230 46 C230 32.47 230 18.94 230 5 C155.42 4.67 80.84 4.34 4 4 C4 3.67 4 3.34 4 3 C73.63 2.67 143.26 2.34 215 2 C215 1.34 215 0.68 215 0 C217.89611067 -0.33081223 220.7848762 -0.61539756 223.6875 -0.875 C224.91243164 -1.02195312 224.91243164 -1.02195312 226.16210938 -1.171875 C226.95810547 -1.23632812 227.75410156 -1.30078125 228.57421875 -1.3671875 C229.30213623 -1.44050293 230.03005371 -1.51381836 230.7800293 -1.58935547 C233.69032831 -0.81673237 235.20039027 0.73280475 237.00028992 3.10006714 C238.89201549 6.69526102 238.69124562 10.36103832 238.62890625 14.34375 C238.63131821 15.23106812 238.63373016 16.11838623 238.63621521 17.03259277 C238.63523913 18.90181972 238.62190265 20.77107642 238.59692383 22.64013672 C238.56260153 25.49156481 238.57627999 28.3398928 238.59570312 31.19140625 C238.58880423 33.01303395 238.57913146 34.83465369 238.56640625 36.65625 C238.57136612 37.50328491 238.57632599 38.35031982 238.58143616 39.22302246 C238.47244285 44.73610852 237.57992932 47.75377469 234 52 C231.4316995 53.28415025 229.58715306 53.13925605 226.71029663 53.15821838 C225.0275489 53.17290161 225.0275489 53.17290161 223.31080627 53.18788147 C221.45611977 53.19651466 221.45611977 53.19651466 219.56396484 53.20532227 C218.26644791 53.21522186 216.96893097 53.22512146 215.63209534 53.23532104 C212.06829766 53.26239979 208.5044867 53.28339324 204.94064283 53.30332303 C201.21834856 53.3251643 197.49609538 53.35256207 193.77383423 53.37937927 C186.7226042 53.42933135 179.6713514 53.47426083 172.62007678 53.51740164 C164.59355386 53.56675255 156.56707216 53.62167862 148.54058909 53.67708123 C132.02709737 53.79093987 115.51356789 53.89777044 99 54 C99.48601181 54.5878981 99.97202362 55.1757962 100.47276306 55.7815094 C102.64018128 58.92993831 102.48646834 61.95747875 102.50390625 65.65234375 C102.51389145 66.38949112 102.52387665 67.12663849 102.53416443 67.88612366 C102.54931969 69.44184777 102.55639102 70.99766894 102.5559082 72.5534668 C102.56247168 74.92725914 102.61696938 77.29686924 102.67382812 79.66992188 C102.68263108 81.18488159 102.68858471 82.69986109 102.69140625 84.21484375 C102.7129628 84.9201976 102.73451935 85.62555145 102.75672913 86.35227966 C102.71806409 89.14816499 102.53895343 91.34890421 100.71871948 93.54788208 C97.74785892 96.09517712 94.71199974 97.79905891 91 99 C91.56589844 99.23074219 92.13179687 99.46148438 92.71484375 99.69921875 C93.44832031 100.02535156 94.18179687 100.35148438 94.9375 100.6875 C95.66839844 101.00074219 96.39929687 101.31398438 97.15234375 101.63671875 C99.6474982 103.47775237 99.52656089 105.02680236 100 108 C101.00579495 107.99446924 101.00579495 107.99446924 102.03190899 107.98882675 C118.34849554 107.90048369 134.66500632 107.83429438 150.98177624 107.79275131 C158.87245969 107.77212732 166.76298348 107.74400999 174.65356445 107.69824219 C181.53112419 107.65836924 188.40856829 107.632566 195.2862404 107.62364602 C198.92786715 107.61843198 202.56916311 107.606181 206.21068382 107.57707977 C210.27626586 107.5448533 214.34127308 107.54404087 218.40698242 107.54589844 C219.61395279 107.53151733 220.82092316 107.51713623 222.06446838 107.50231934 C230.22540995 107.54277836 230.22540995 107.54277836 234.2245636 109.90338135 C236.65572251 112.77434485 237.12660533 114.32892483 237.16113281 118.00317383 C237.17074036 118.82775589 237.1803479 119.65233795 237.19024658 120.50190735 C237.1966214 121.84094368 237.1966214 121.84094368 237.203125 123.20703125 C237.20882507 124.12457687 237.21452515 125.0421225 237.22039795 125.98747253 C237.22985433 127.93182215 237.23638446 129.87618784 237.24023438 131.82055664 C237.24992709 134.79016254 237.28093903 137.75907263 237.3125 140.72851562 C237.31903134 142.61718339 237.32428129 144.5058561 237.328125 146.39453125 C237.3404718 147.28114944 237.3528186 148.16776764 237.36553955 149.08125305 C237.34831574 153.86794072 237.17088522 157.14877692 234 161 C230.80141769 163.13238821 230.01635555 163.24864896 226.34931946 163.24050903 C224.91693436 163.24463303 224.91693436 163.24463303 223.45561218 163.24884033 C222.40976456 163.24164978 221.36391693 163.23445923 220.28637695 163.22705078 C219.1837854 163.22734283 218.08119385 163.22763489 216.94519043 163.22793579 C213.29280792 163.22654003 209.64062822 163.21096702 205.98828125 163.1953125 C203.45908215 163.19158325 200.9298816 163.18873586 198.40068054 163.18673706 C192.41898278 163.17987533 186.43737237 163.16410489 180.45570964 163.14403808 C173.64562274 163.12168777 166.83553236 163.11068784 160.02541792 163.10064721 C146.0168974 163.07973886 132.00846905 163.04305916 118 163 C118 172.9 118 182.8 118 193 C119.65 193.33 121.3 193.66 123 194 C126.33559328 196.24958617 128.63819061 198.16217353 130 202 C130 202.99 130 203.98 130 205 C158.38 205 186.76 205 216 205 C216.33 206.65 216.66 208.3 217 210 C216 211 216 211 212.6864624 211.10438538 C211.17865002 211.1006178 209.67084601 211.09148212 208.16308594 211.07836914 C206.4605109 211.07225119 204.75793517 211.06632464 203.05535889 211.06056213 C201.69415043 211.0535538 201.69415043 211.0535538 200.30544281 211.04640388 C195.51741089 211.02731394 190.72944942 211.04242928 185.94140625 211.05273438 C179.84006222 211.06499047 173.73941884 211.06666427 167.63818359 211.02416992 C162.71529715 210.99078152 157.7938005 210.99619491 152.87091827 211.02773857 C150.99384126 211.03266893 149.11667079 211.02335037 147.23973846 210.99952888 C144.60975362 210.96811786 141.98439992 210.98628746 139.35449219 211.01586914 C138.57922684 210.99488663 137.80396149 210.97390411 137.00520325 210.95228577 C134.51596251 210.93154575 134.51596251 210.93154575 131 212 C129.33511023 213.90883285 128.20288225 215.78532056 127.05638504 218.04045773 C125.28640464 221.32368429 123.37411069 222.50039525 120 224 C114.69487052 224.76013796 110.44084738 224.68112785 105.5625 222.375 C102.76797975 219.78495684 100.84383241 217.33308167 99 214 C99 213.01 99 212.02 99 211 C70.29 211 41.58 211 12 211 C11.67 209.68 11.34 208.36 11 207 C13.55930462 204.44069538 15.21804776 204.76436366 18.70651245 204.75115967 C19.90197189 204.7619455 19.90197189 204.7619455 21.12158203 204.77294922 C21.96068115 204.77265717 22.79978027 204.77236511 23.66430664 204.77206421 C26.44557944 204.77346067 29.22658634 204.78903665 32.0078125 204.8046875 C33.93309381 204.80841651 35.85837701 204.81126401 37.78366089 204.81326294 C42.8570477 204.82090824 47.93032044 204.8405644 53.00366211 204.8626709 C58.17820696 204.88311005 63.35277019 204.89226052 68.52734375 204.90234375 C78.68494602 204.92380946 88.84246353 204.95795619 99 205 C99.11859375 204.22914063 99.2371875 203.45828125 99.359375 202.6640625 C100.46944127 198.0478113 103.88042689 195.75506094 107.6875 193.1875 C110 192 110 192 112 192 C112 182.43 112 172.86 112 163 C108.6887207 163.02094727 105.37744141 163.04189453 101.96582031 163.06347656 C91.03746276 163.12969239 80.10909646 163.1739138 69.18059158 163.20724869 C62.55322935 163.22814226 55.92607227 163.25649282 49.29882812 163.30175781 C42.90570809 163.3451515 36.51278564 163.36912377 30.11952972 163.37950897 C27.67781207 163.38691192 25.23610549 163.40136773 22.79447174 163.42292023 C19.37999418 163.45186718 15.96633791 163.45595952 12.55175781 163.45410156 C11.53755768 163.46848267 10.52335754 163.48286377 9.47842407 163.49768066 C2.6931842 163.45760818 2.6931842 163.45760818 -0.62713623 161.26568604 C-2.18329671 158.6974989 -2.50590136 157.28166003 -2.51757812 154.29492188 C-2.53018677 153.36715942 -2.54279541 152.43939697 -2.55578613 151.48352051 C-2.54768921 150.48864624 -2.53959229 149.49377197 -2.53125 148.46875 C-2.5350769 147.44068237 -2.53890381 146.41261475 -2.54284668 145.35339355 C-2.54556674 143.18138652 -2.53819906 141.00934677 -2.52148438 138.83740234 C-2.50007695 135.51195271 -2.52128378 132.18866365 -2.546875 128.86328125 C-2.54423174 126.7525994 -2.53910681 124.64191889 -2.53125 122.53125 C-2.53934692 121.53637573 -2.54744385 120.54150146 -2.55578613 119.51647949 C-2.46196903 112.61327926 -2.46196903 112.61327926 -0.09179688 109.46679688 C0.59849609 108.98275391 1.28878906 108.49871094 2 108 C2.99 107.01 2.99 107.01 4 106 C3.195625 105.525625 2.39125 105.05125 1.5625 104.5625 C-1 103 -1 103 -2 102 C-2.1136793 100.57378155 -2.15952684 99.14206084 -2.17700195 97.71142578 C-2.18983719 96.8002298 -2.20267242 95.88903381 -2.21589661 94.95022583 C-2.22328354 93.95860443 -2.23067047 92.96698303 -2.23828125 91.9453125 C-2.246353 90.9328244 -2.25442474 89.9203363 -2.26274109 88.87716675 C-2.27659934 86.7301404 -2.28731367 84.58309187 -2.29516602 82.43603516 C-2.31239144 79.1457364 -2.35626386 75.85643879 -2.40039062 72.56640625 C-2.41051582 70.48438242 -2.41903246 68.40235001 -2.42578125 66.3203125 C-2.44328934 65.33273956 -2.46079742 64.34516663 -2.47883606 63.32766724 C-2.47591049 62.41016693 -2.47298492 61.49266663 -2.4699707 60.54736328 C-2.47877007 59.33610275 -2.47877007 59.33610275 -2.48774719 58.10037231 C-2 56 -2 56 0.02937317 54.21578979 C0.67968002 53.81457916 1.32998688 53.41336853 2 53 C1.1850708 52.20706543 0.3701416 51.41413086 -0.46948242 50.59716797 C-3.89087269 46.4667567 -3.64245346 42.61809849 -3.48828125 37.4453125 C-3.48120651 36.54376434 -3.47413177 35.64221619 -3.46684265 34.71334839 C-3.43897892 31.8497014 -3.376257 28.9880503 -3.3125 26.125 C-3.28740669 24.17711168 -3.26459533 22.22919255 -3.24414062 20.28125 C-3.1934401 15.51945644 -3.09557877 10.76194683 -3 6 C-9.93 6 -16.86 6 -24 6 C-24 4.68 -24 3.36 -24 2 C-20.75198175 1.46626918 -17.50138509 0.95028732 -14.25 0.4375 C-13.32960938 0.28603516 -12.40921875 0.13457031 -11.4609375 -0.02148438 C-10.12675781 -0.2293457 -10.12675781 -0.2293457 -8.765625 -0.44140625 C-7.94868164 -0.57232666 -7.13173828 -0.70324707 -6.29003906 -0.83813477 C-3.93889793 -1.00431883 -2.23573504 -0.70259545 0 0 Z " fill="#1D477A" transform="translate(1031,487)"/>
<path d="M0 0 C0.86827344 0.00446144 1.73654689 0.00892289 2.63113165 0.01351953 C4.00977715 0.00883955 4.00977715 0.00883955 5.41627407 0.00406504 C8.51485349 -0.0039512 11.61323904 0.00242276 14.71182013 0.00869775 C16.92559185 0.00598949 19.13936267 0.0024295 21.35313177 -0.00192237 C27.37983726 -0.01106835 33.40647455 -0.00749303 39.43318129 -0.0011642 C45.72768229 0.00388439 52.0221773 -0.00079246 58.31667852 -0.00393653 C69.56700929 -0.00781314 80.81731183 -0.00158124 92.06763595 0.00858214 C102.27538075 0.01751807 112.48308006 0.01596616 122.69082403 0.00674462 C134.53487462 -0.00395006 146.37890316 -0.00794689 158.22295952 -0.00203085 C164.4962503 0.00109406 170.76950973 0.00148395 177.04279852 -0.00510383 C182.93931667 -0.01086294 188.83574857 -0.00690679 194.73225737 0.00468469 C196.90191965 0.00733898 199.07158915 0.00655317 201.24124861 0.00215936 C204.19202847 -0.0032673 207.14252807 0.00350282 210.09328985 0.01351953 C210.9615633 0.00905808 211.82983674 0.00459664 212.7244215 0 C218.63391073 0.03918679 218.63391073 0.03918679 220.86221075 2.26748681 C221.05004637 5.34100616 221.11767997 8.32291159 221.0926795 11.39639306 C221.09222128 12.30122933 221.09176306 13.20606561 221.09129095 14.13832116 C221.08826745 16.05240208 221.08037825 17.96648051 221.0680213 19.88052392 C221.04976376 22.82144846 221.04751158 25.76205839 221.04775763 28.70303369 C221.04284261 30.55915622 221.03701437 32.4152766 221.0301795 34.27139306 C221.02906668 35.15678262 221.02795385 36.04217217 221.02680731 36.95439172 C220.97825604 43.15144152 220.97825604 43.15144152 219.86221075 44.26748681 C216.94407242 44.3676729 214.04952515 44.40187188 211.13088751 44.39447045 C210.20377226 44.39603044 209.27665702 44.39759043 208.32144737 44.3991977 C205.18983709 44.40321194 202.05827459 44.40001642 198.92666388 44.39688134 C196.69171384 44.39823519 194.45676402 44.40001504 192.22181463 44.4021914 C186.13315237 44.40676764 180.04450697 44.40497539 173.9558444 44.40181231 C167.59947808 44.39928969 161.24311326 44.40162598 154.88674688 44.40319848 C143.52521705 44.40513734 132.16369582 44.40201953 120.80216771 44.39693914 C110.49063527 44.3924711 100.17911408 44.39324703 89.86758184 44.3978579 C77.9070894 44.40320358 65.94660379 44.40520455 53.98610973 44.40224564 C47.64968708 44.40068242 41.31327219 44.40049034 34.97685003 44.40378213 C29.02127637 44.40665966 23.06572407 44.40468733 17.11015272 44.39888787 C14.91749434 44.39755964 12.72483418 44.39795545 10.53217649 44.40015054 C7.55260428 44.40285957 4.5731017 44.39948396 1.59353399 44.39447045 C0.71388369 44.39670117 -0.16576661 44.3989319 -1.07207298 44.40123022 C-7.02363943 44.38163663 -7.02363943 44.38163663 -8.13778925 43.26748681 C-8.25135649 40.26110431 -8.30197837 37.27856239 -8.305758 34.27139306 C-8.3090864 33.36751351 -8.3124148 32.46363397 -8.31584406 31.53236413 C-8.32091721 29.61652155 -8.32325227 27.70067009 -8.32309198 25.7848208 C-8.32527738 22.84595263 -8.3434259 19.9074603 -8.36239862 16.96865869 C-8.36533262 15.1112381 -8.36731738 13.25381572 -8.368258 11.39639306 C-8.37544352 10.51302773 -8.38262903 9.62966241 -8.39003229 8.71952844 C-8.36222266 1.33040362 -7.44166719 0.04934691 0 0 Z " fill="#F0F1F2" transform="translate(1041.1377892494202,599.7325131893158)"/>
<path d="M0 0 C0.8796503 0.00223072 1.7593006 0.00446144 2.66560698 0.00675976 C4.05627984 0.00441978 4.05627984 0.00441978 5.47504711 0.00203252 C8.6066574 -0.00198173 11.73821989 0.0012138 14.86983061 0.00434887 C17.10478065 0.00299502 19.33973046 0.00121518 21.57467985 -0.00096118 C27.66334211 -0.00553742 33.75198751 -0.00374518 39.84065008 -0.0005821 C46.1970164 0.00194052 52.55338123 -0.00039576 58.9097476 -0.00196826 C70.27127743 -0.00390713 81.63279866 -0.00078931 92.99432677 0.00429107 C103.30585921 0.00875912 113.6173804 0.00798319 123.92891264 0.00337231 C135.88940509 -0.00197336 147.84989069 -0.00397434 159.81038475 -0.00101542 C166.1468074 0.0005478 172.48322229 0.00073988 178.81964445 -0.00255191 C184.77521812 -0.00542945 190.73077042 -0.00345711 196.68634176 0.00234234 C198.87900014 0.00367058 201.07166031 0.00327476 203.26431799 0.00107968 C206.24389021 -0.00162935 209.22339278 0.00174626 212.20296049 0.00675976 C213.08261079 0.00452904 213.9622611 0.00229832 214.86856747 0 C220.82013392 0.01959359 220.82013392 0.01959359 221.93428373 1.13374341 C222.03542073 4.15182404 222.07397282 7.14654853 222.06709623 10.16499341 C222.06805296 11.07124463 222.06900969 11.97749585 222.0699954 12.91120923 C222.07067727 14.83125388 222.06882256 16.75130081 222.06465483 18.67134106 C222.05930666 21.62110044 222.06459961 24.57070755 222.07100248 27.52046216 C222.0703417 29.38113958 222.06906054 31.2418169 222.06709623 33.10249341 C222.06912046 33.99102002 222.0711447 34.87954663 222.07323027 35.79499829 C222.04923362 42.01879352 222.04923362 42.01879352 220.93428373 43.13374341 C218.0161454 43.23392949 215.12159813 43.26812848 212.20296049 43.26072705 C211.27584525 43.26228704 210.34873 43.26384703 209.39352036 43.26545429 C206.26191007 43.26946854 203.13034757 43.26627301 199.99873686 43.26313794 C197.76378682 43.26449179 195.528837 43.26627163 193.29388762 43.268448 C187.20522536 43.27302423 181.11657996 43.27123199 175.02791739 43.26806891 C168.67155107 43.26554629 162.31518624 43.26788257 155.95881987 43.26945508 C144.59729004 43.27139394 133.23576881 43.26827612 121.8742407 43.26319574 C111.56270825 43.25872769 101.25118707 43.25950363 90.93965483 43.2641145 C78.97916238 43.26946018 67.01867678 43.27146115 55.05818272 43.26850224 C48.72176006 43.26693901 42.38534518 43.26674693 36.04892302 43.27003872 C30.09334935 43.27291626 24.13779705 43.27094393 18.1822257 43.26514447 C15.98956732 43.26381623 13.79690716 43.26421205 11.60424948 43.26640713 C8.62467726 43.26911616 5.64517468 43.26574055 2.66560698 43.26072705 C1.78595667 43.26295777 0.90630637 43.26518849 0 43.26748681 C-5.95156645 43.24789322 -5.95156645 43.24789322 -7.06571627 42.13374341 C-7.16685326 39.11566277 -7.20540535 36.12093828 -7.19852877 33.10249341 C-7.19948549 32.19624218 -7.20044222 31.28999096 -7.20142794 30.35627759 C-7.2021098 28.43623294 -7.20025509 26.516186 -7.19608736 24.59614575 C-7.19073919 21.64638637 -7.19603214 18.69677926 -7.20243502 15.74702466 C-7.20177424 13.88634723 -7.20049308 12.02566991 -7.19852877 10.16499341 C-7.200553 9.27646679 -7.20257723 8.38794018 -7.2046628 7.47248852 C-7.17594274 0.02362445 -7.17594274 0.02362445 0 0 Z " fill="#F2F3F3" transform="translate(1040.065716266632,490.8662565946579)"/>
<path d="M0 0 C0.8796503 0.00223072 1.7593006 0.00446144 2.66560698 0.00675976 C4.05627984 0.00441978 4.05627984 0.00441978 5.47504711 0.00203252 C8.6066574 -0.00198173 11.73821989 0.0012138 14.86983061 0.00434887 C17.10478065 0.00299502 19.33973046 0.00121518 21.57467985 -0.00096118 C27.66334211 -0.00553742 33.75198751 -0.00374518 39.84065008 -0.0005821 C46.1970164 0.00194052 52.55338123 -0.00039576 58.9097476 -0.00196826 C70.27127743 -0.00390713 81.63279866 -0.00078931 92.99432677 0.00429107 C103.30585921 0.00875912 113.6173804 0.00798319 123.92891264 0.00337231 C135.88940509 -0.00197336 147.84989069 -0.00397434 159.81038475 -0.00101542 C166.1468074 0.0005478 172.48322229 0.00073988 178.81964445 -0.00255191 C184.77521812 -0.00542945 190.73077042 -0.00345711 196.68634176 0.00234234 C198.87900014 0.00367058 201.07166031 0.00327476 203.26431799 0.00107968 C206.24389021 -0.00162935 209.22339278 0.00174626 212.20296049 0.00675976 C213.08261079 0.00452904 213.9622611 0.00229832 214.86856747 0 C220.82013392 0.01959359 220.82013392 0.01959359 221.93428373 1.13374341 C222.03542073 4.15182404 222.07397282 7.14654853 222.06709623 10.16499341 C222.06805296 11.07124463 222.06900969 11.97749585 222.0699954 12.91120923 C222.07067727 14.83125388 222.06882256 16.75130081 222.06465483 18.67134106 C222.05930666 21.62110044 222.06459961 24.57070755 222.07100248 27.52046216 C222.0703417 29.38113958 222.06906054 31.2418169 222.06709623 33.10249341 C222.06912046 33.99102002 222.0711447 34.87954663 222.07323027 35.79499829 C222.04923362 42.01879352 222.04923362 42.01879352 220.93428373 43.13374341 C218.03105455 43.23614446 215.151467 43.27259498 212.24765348 43.26745617 C210.86416429 43.27085451 210.86416429 43.27085451 209.45272583 43.2743215 C206.3372724 43.28069233 203.22186213 43.27983017 200.10640287 43.27900708 C197.88292716 43.28199664 195.65945196 43.28539869 193.43597746 43.28918469 C187.37824157 43.29804933 181.32051979 43.30036383 175.26277804 43.30100048 C170.21521318 43.30194746 165.16765163 43.30562331 160.12008804 43.30917257 C148.89786513 43.31686008 137.67564891 43.31984035 126.45342416 43.31916722 C125.77945401 43.31912726 125.10548386 43.31908731 124.41109037 43.31904614 C123.73630156 43.31900526 123.06151274 43.31896438 122.36627578 43.31892226 C111.42631294 43.31851567 100.4863845 43.32808736 89.54643161 43.34218451 C78.32536542 43.35653031 67.10431551 43.36327232 55.88323826 43.36259073 C49.57862892 43.36233504 43.27405848 43.36522516 36.96945715 43.37576878 C31.04259081 43.3854094 25.11580089 43.38555686 19.18893194 43.37825215 C17.00798001 43.37720127 14.82702343 43.37959874 12.64607954 43.38561261 C9.67992733 43.39326477 6.71404355 43.38873307 3.74789762 43.38098156 C2.87505111 43.38612513 2.0022046 43.39126869 1.10290819 43.39656812 C-4.83744509 43.36201458 -4.83744509 43.36201458 -7.06571627 41.13374341 C-7.25347794 38.13238727 -7.32121809 35.22487194 -7.29618502 32.22358716 C-7.2957268 31.34094693 -7.29526857 30.4583067 -7.29479647 29.5489198 C-7.29177314 27.681917 -7.28388444 25.81491674 -7.27152681 23.94795239 C-7.25326853 21.07945401 -7.2510171 18.21127819 -7.25126314 15.34272778 C-7.24634815 13.5321781 -7.24051991 11.72163061 -7.23368502 9.91108716 C-7.23257219 9.04757138 -7.23145937 8.1840556 -7.23031282 7.29437268 C-7.1734568 0.21573024 -7.07943558 0.02330673 0 0 Z " fill="#F2F3F3" transform="translate(1040.065716266632,384.8662565946579)"/>
<path d="M0 0 C1.51880013 -0.01925285 1.51880013 -0.01925285 3.06828308 -0.03889465 C4.170215 -0.04628159 5.27214691 -0.05366852 6.4074707 -0.0612793 C8.11444878 -0.07338692 8.11444878 -0.07338692 9.85591125 -0.08573914 C12.27615836 -0.09959936 14.69642517 -0.11031279 17.11669922 -0.11816406 C20.77326323 -0.13521826 24.42888515 -0.17906814 28.08520508 -0.22338867 C46.07836375 -0.34339496 61.09663027 1.0670162 76.39575195 11.36450195 C84.22731768 19.37405781 88.51567771 29.51844122 88.50708008 40.68676758 C88.4909668 41.52916992 88.47485352 42.37157227 88.45825195 43.23950195 C88.46147461 44.08577148 88.46469727 44.93204102 88.46801758 45.80395508 C88.36186421 58.32040165 84.03170821 68.97379207 75.45043945 78.13793945 C71.44835727 81.6787647 66.978995 83.96384783 62.14575195 86.17700195 C61.48961914 86.49411133 60.83348633 86.8112207 60.1574707 87.13793945 C47.22555484 92.73161612 31.84074133 91.3460759 18.14575195 91.17700195 C18.14575195 105.03700195 18.14575195 118.89700195 18.14575195 133.17700195 C13.38137695 133.19762695 8.61700195 133.21825195 3.70825195 133.23950195 C2.20335205 133.24860596 0.69845215 133.25770996 -0.85205078 133.26708984 C-2.02711182 133.2695874 -3.20217285 133.27208496 -4.4128418 133.2746582 C-6.22739868 133.28251343 -6.22739868 133.28251343 -8.07861328 133.29052734 C-10.85424805 133.17700195 -10.85424805 133.17700195 -11.85424805 132.17700195 C-11.96116419 130.55636241 -11.99832976 128.93107855 -12.00814819 127.3069458 C-12.01674866 126.25261353 -12.02534912 125.19828125 -12.03421021 124.11199951 C-12.03847015 122.94525696 -12.0427301 121.7785144 -12.04711914 120.57641602 C-12.05938538 118.74481934 -12.05938538 118.74481934 -12.07189941 116.8762207 C-12.09681452 112.81502617 -12.11343314 108.753869 -12.12768555 104.69262695 C-12.13304414 103.29571272 -12.13842165 101.89879855 -12.1438179 100.50188446 C-12.16545431 94.69088256 -12.18419071 88.87988348 -12.19544029 83.06885147 C-12.2116759 74.73633844 -12.2448347 66.40429205 -12.30184114 58.07195497 C-12.3405386 52.2162787 -12.36007285 46.36072723 -12.36536086 40.50492644 C-12.36901539 37.0063302 -12.38104543 33.50823121 -12.41346359 30.00977325 C-12.44912852 26.1047649 -12.44517379 22.20034189 -12.43774414 18.29516602 C-12.45414948 17.13652039 -12.47055481 15.97787476 -12.48745728 14.78411865 C-12.41934311 6.05857802 -12.41934311 6.05857802 -9.44277954 2.9821167 C-5.93370248 0.53505868 -4.22382286 0.04662214 0 0 Z " fill="#0284C2" transform="translate(811.854248046875,432.822998046875)"/>
<path d="M0 0 C29.04 0 58.08 0 88 0 C88 7.59 88 15.18 88 23 C87 24 87 24 84.71580505 24.12025452 C83.70542679 24.11803391 82.69504852 24.11581329 81.65405273 24.11352539 C80.5129454 24.11344986 79.37183807 24.11337433 78.19615173 24.11329651 C76.9545076 24.10813522 75.71286346 24.10297394 74.43359375 24.09765625 C72.53795433 24.09553383 72.53795433 24.09553383 70.60401917 24.09336853 C67.23875111 24.08870582 63.8735501 24.0797148 60.50830078 24.06866455 C57.07650341 24.05844846 53.64469892 24.05381578 50.21289062 24.04882812 C43.47522246 24.03862263 36.73767229 24.01905091 30 24 C30 33.9 30 43.8 30 54 C46.5 54 63 54 80 54 C80 61.92 80 69.84 80 78 C63.5 78 47 78 30 78 C30 88.23 30 98.46 30 109 C49.47 109 68.94 109 89 109 C89 116.92 89 124.84 89 133 C77.69115339 133.04512154 66.38236622 133.08184145 55.07345009 133.10362434 C49.82269582 133.11407717 44.57200615 133.12826363 39.32128906 133.15087891 C34.25738258 133.17255395 29.19353836 133.18455732 24.12958908 133.18975449 C22.19421788 133.19345987 20.25885021 133.20069519 18.3235054 133.21146011 C15.62005403 133.22590414 12.91686244 133.22798093 10.21337891 133.22705078 C9.40705521 133.23424133 8.60073151 133.24143188 7.76997375 133.24884033 C2.22810432 133.22810432 2.22810432 133.22810432 0 131 C-0.24609566 128.70802879 -0.24609566 128.70802879 -0.24050903 125.78622437 C-0.24325836 124.68122086 -0.24600769 123.57621735 -0.24884033 122.43772888 C-0.24164978 121.21997269 -0.23445923 120.00221649 -0.22705078 118.74755859 C-0.22734283 117.4695488 -0.22763489 116.191539 -0.22793579 114.87480164 C-0.22851098 111.36464556 -0.2167299 107.85462543 -0.20278788 104.34450102 C-0.19030814 100.67829288 -0.1891122 97.01208182 -0.18673706 93.34585571 C-0.18051416 86.40082099 -0.16409243 79.45584902 -0.14403808 72.51084197 C-0.11753036 63.12783703 -0.10671298 53.744815 -0.09503365 44.36178207 C-0.07621237 29.57447435 -0.03637215 14.78729908 0 0 Z " fill="#0585C2" transform="translate(913,433)"/>
<path d="M0 0 C-0.31044024 2.39611639 -0.62328358 4.79187835 -0.9375 7.1875 C-1.02451172 7.86103516 -1.11152344 8.53457031 -1.20117188 9.22851562 C-1.67825477 12.85081166 -2.23012035 16.42803585 -3 20 C-6.29614088 18.92875421 -9.53401652 17.7877007 -12.75 16.5 C-24.06092169 12.33504379 -39.92251679 10.03430902 -51.4375 14.625 C-55.15718569 16.75159321 -57.26989297 19.01323164 -59 23 C-59.80206669 27.70264366 -59.63910052 30.80984607 -57.35546875 35.0625 C-54.7090737 38.36281357 -52.61152768 39.68288008 -48.8125 41.5 C-48.20519043 41.79205322 -47.59788086 42.08410645 -46.97216797 42.38500977 C-42.29691603 44.56643901 -37.50829441 46.28734503 -32.625 47.9375 C-18.19880833 52.84673106 -3.01977941 58.69721533 4.23828125 73.125 C6.46675864 78.43233824 6.55873841 83.37211643 6.4375 89.0625 C6.44458984 90.00416016 6.45167969 90.94582031 6.45898438 91.91601562 C6.3657964 102.21687091 3.53314172 108.21016976 -3.53515625 115.66796875 C-15.15668157 126.6632946 -28.94145816 129.39784158 -44.5 129.375 C-45.64331787 129.37338867 -46.78663574 129.37177734 -47.96459961 129.37011719 C-61.30419745 129.17859928 -71.722615 126.45661556 -84 121 C-84 113.08 -84 105.16 -84 97 C-79.66010419 98.73595833 -75.50529208 100.64713043 -71.3046875 102.68359375 C-62.46963583 106.20299376 -54.29986699 107.50367694 -44.8125 107.4375 C-43.78447266 107.45748047 -42.75644531 107.47746094 -41.69726562 107.49804688 C-34.96363543 107.49373873 -30.81005106 106.38417046 -25 103 C-24.34 103 -23.68 103 -23 103 C-22.690625 102.21625 -22.38125 101.4325 -22.0625 100.625 C-21 98 -21 98 -20 96 C-19.6480317 93.57156422 -19.6480317 93.57156422 -19.5625 90.8125 C-19.50191406 89.89082031 -19.44132812 88.96914063 -19.37890625 88.01953125 C-20.31318884 83.4773901 -22.40800005 80.88930129 -26 78 C-29.74939238 76.06194644 -33.62872055 74.71519129 -37.625 73.375 C-39.78814805 72.60525515 -41.95091376 71.8344349 -44.11328125 71.0625 C-45.1388916 70.70414062 -46.16450195 70.34578125 -47.22119141 69.9765625 C-60.9299729 65.15885683 -74.38272056 59.11334038 -82.12109375 46.1171875 C-86.32684033 37.14224503 -86.80195169 23.99696731 -83.5 14.6875 C-78.21781242 3.49953325 -68.66283052 -3.19029547 -57.25 -7.375 C-38.60562776 -10.9604562 -16.29411323 -10.86274215 0 0 Z " fill="#0E3467" transform="translate(354,431)"/>
<path d="M0 0 C8.86543416 6.95905584 13.28180373 16.01543076 15 27 C15.25670199 30.48537625 15.28107595 33.94404524 15.25 37.4375 C15.26160156 38.78231445 15.26160156 38.78231445 15.2734375 40.15429688 C15.27085937 41.00958984 15.26828125 41.86488281 15.265625 42.74609375 C15.26336914 43.51622803 15.26111328 44.2863623 15.25878906 45.07983398 C15 47 15 47 13 49 C10.55758667 49.24050903 10.55758667 49.24050903 7.44873047 49.22705078 C5.70715164 49.22682419 5.70715164 49.22682419 3.9303894 49.22659302 C2.67203278 49.21627045 1.41367615 49.20594788 0.1171875 49.1953125 C-1.16735321 49.1924826 -2.45189392 49.18965271 -3.77536011 49.18673706 C-7.19162767 49.17909809 -10.60772537 49.15944752 -14.02392578 49.1373291 C-17.50941673 49.11687624 -20.9949351 49.10773655 -24.48046875 49.09765625 C-31.32038231 49.07620175 -38.160183 49.04206271 -45 49 C-44.77957031 50.90144775 -44.77957031 50.90144775 -44.5546875 52.84130859 C-44.47202637 53.5543515 -44.38936523 54.26739441 -44.30419922 55.00204468 C-43.51222993 60.20363347 -40.77218948 64.49000611 -36.80859375 67.8671875 C-27.46985077 74.29815054 -17.04340113 74.0942008 -6 73 C-1.08389682 71.92843323 3.38577856 69.97550765 8 68 C8.66 68 9.32 68 10 68 C10.13536629 70.41854446 10.23420279 72.82949783 10.3125 75.25 C10.35439453 75.93191406 10.39628906 76.61382813 10.43945312 77.31640625 C10.528188 80.97228321 10.35139442 82.61942843 7.8359375 85.34375 C-1.67561745 90.89870771 -11.48135292 91.37984469 -22.25 91.4375 C-23.35045654 91.44749023 -24.45091309 91.45748047 -25.5847168 91.46777344 C-37.6501108 91.34062589 -48.18432595 88.23079133 -57.23046875 79.9609375 C-66.81412643 69.78392015 -71.04404493 57.40932815 -71.3125 43.5 C-70.8468541 28.58142173 -67.62210867 14.77213833 -56.9296875 3.67578125 C-41.25532839 -9.93616219 -17.38388175 -11.01913795 0 0 Z " fill="#0D3467" transform="translate(439,468)"/>
<path d="M0 0 C8.86449813 7.2551696 13.39175066 16.91234702 15.125 28.0859375 C15.3771488 31.40524004 15.40631762 34.69594054 15.375 38.0234375 C15.38660156 39.29670898 15.38660156 39.29670898 15.3984375 40.59570312 C15.39585937 41.40587891 15.39328125 42.21605469 15.390625 43.05078125 C15.38836914 43.779021 15.38611328 44.50726074 15.38378906 45.25756836 C15.125 47.0859375 15.125 47.0859375 13.125 49.0859375 C10.68258667 49.32644653 10.68258667 49.32644653 7.57373047 49.31298828 C5.83215164 49.31276169 5.83215164 49.31276169 4.0553894 49.31253052 C2.79703278 49.30220795 1.53867615 49.29188538 0.2421875 49.28125 C-1.04235321 49.2784201 -2.32689392 49.27559021 -3.65036011 49.27267456 C-7.06662767 49.26503559 -10.48272537 49.24538502 -13.89892578 49.2232666 C-17.38441673 49.20281374 -20.8699351 49.19367405 -24.35546875 49.18359375 C-31.19538231 49.16213925 -38.035183 49.12800021 -44.875 49.0859375 C-44.60934906 50.8286455 -44.32913965 52.56913757 -44.04296875 54.30859375 C-43.88852295 55.27804932 -43.73407715 56.24750488 -43.57495117 57.24633789 C-42.30192107 62.41083495 -39.35707067 66.25445364 -35.1015625 69.39453125 C-25.59857885 75.05897347 -16.40334522 75.40837311 -5.80224609 72.74853516 C-0.07619448 71.23008452 -0.07619448 71.23008452 5.37109375 68.953125 C7.125 68.0859375 7.125 68.0859375 10.125 68.0859375 C11.32705393 81.35861631 11.32705393 81.35861631 8.73046875 85.08984375 C-0.21069298 90.89886736 -11.62623311 91.56941372 -21.9375 91.4609375 C-23.59749023 91.47833984 -23.59749023 91.47833984 -25.29101562 91.49609375 C-38.60782343 91.44889892 -49.30973835 87.44224179 -59.1875 78.3984375 C-69.39594866 67.4696346 -71.56120777 50.8277959 -71.15234375 36.38671875 C-70.13116805 24.23328964 -65.65800161 12.19564865 -56.6875 3.6484375 C-40.63668754 -9.34638837 -17.47914805 -11.63693281 0 0 Z " fill="#0E3568" transform="translate(699.875,467.9140625)"/>
<path d="M0 0 C8.91 0 17.82 0 27 0 C31.49770074 11.24425186 31.49770074 11.24425186 32.640625 15.27734375 C33.03386963 16.64632813 33.03386963 16.64632813 33.43505859 18.04296875 C33.70398926 18.99816406 33.97291992 19.95335937 34.25 20.9375 C34.85065488 23.04062401 35.4522562 25.1434779 36.0546875 27.24609375 C36.36760742 28.34034668 36.68052734 29.43459961 37.00292969 30.56201172 C38.04186957 34.14437006 39.11380707 37.71542872 40.1953125 41.28515625 C40.55850586 42.48857666 40.92169922 43.69199707 41.29589844 44.93188477 C42.00017686 47.26062437 42.70895781 49.5880084 43.42285156 51.91381836 C45.14447454 57.63575897 46.49378874 63.04117033 47 69 C47.66 69 48.32 69 49 69 C49.10812012 68.26426758 49.21624023 67.52853516 49.32763672 66.77050781 C50.44597737 59.57970334 52.02972079 52.71438212 54.125 45.75 C54.42631836 44.73220459 54.72763672 43.71440918 55.03808594 42.66577148 C58.13834823 32.31543317 61.54706081 22.06885666 65.03613281 11.84399414 C66.37244655 7.90105628 67.68347072 3.94958783 69 0 C76.92 0 84.84 0 93 0 C91.38298225 9.70210651 87.77154477 18.69070526 84.28686523 27.8515625 C82.53322354 32.49111849 80.91456016 37.16039676 79.375 41.875 C78.05124076 45.91351628 76.69271139 49.88791702 75.0625 53.8125 C73.15238292 58.4260489 71.61155256 63.13169759 70.0625 67.875 C68.2887229 73.24804329 66.49265583 78.60139259 64.4375 83.875 C63.90962891 85.23238281 63.90962891 85.23238281 63.37109375 86.6171875 C61.54977644 89.7824398 60.20144637 91.17238627 57 93 C53.48736662 93.59885066 50.05621411 93.60407884 46.5 93.5625 C45.56285156 93.58634766 44.62570312 93.61019531 43.66015625 93.63476562 C39.36532877 93.62562769 36.74858271 93.47737159 33.078125 91.13671875 C30.1738327 86.75298432 28.76823699 82.25817913 27.25 77.25 C26.55208732 75.05906331 25.85148649 72.86898141 25.1484375 70.6796875 C24.79233398 69.56174805 24.43623047 68.44380859 24.06933594 67.29199219 C22.44177496 62.28148254 20.67156578 57.32700358 18.875 52.375 C18.51962158 51.39241211 18.16424316 50.40982422 17.7980957 49.39746094 C15.32705373 42.5924862 12.82260818 35.79989725 10.31640625 29.0078125 C9.99692017 28.14175385 9.67743408 27.27569519 9.3482666 26.38339233 C7.74222298 22.0309899 6.13372363 17.67952026 4.52099609 13.32958984 C3.92934545 11.73014935 3.33771059 10.13070301 2.74609375 8.53125 C2.46842667 7.78457062 2.19075958 7.03789124 1.90467834 6.26858521 C0 1.11301844 0 1.11301844 0 0 Z " fill="#0E3467" transform="translate(534,464)"/>
<path d="M0 0 C0.68128967 -0.00175232 1.36257935 -0.00350464 2.06451416 -0.00531006 C4.32688917 -0.00972789 6.58918663 -0.00679084 8.8515625 -0.00341797 C10.4171551 -0.00409103 11.9827476 -0.00506107 13.54833984 -0.00631714 C16.83366895 -0.00779402 20.11897092 -0.00563988 23.40429688 -0.00097656 C27.62476766 0.00472073 31.84517486 0.00144167 36.06564331 -0.00454903 C39.29972822 -0.00815491 42.53379795 -0.00701593 45.7678833 -0.00442123 C47.32448331 -0.00375204 48.88108468 -0.00458012 50.43768311 -0.00690079 C52.60953446 -0.00942777 54.78128146 -0.00558612 56.953125 0 C58.19143066 0.00079559 59.42973633 0.00159119 60.70556641 0.00241089 C63.4765625 0.12939453 63.4765625 0.12939453 64.4765625 1.12939453 C64.57766603 4.07475023 64.61625529 6.99617013 64.609375 9.94189453 C64.61033173 10.82594971 64.61128845 11.71000488 64.61227417 12.62084961 C64.61295601 14.49381583 64.61110143 16.36678439 64.60693359 18.23974609 C64.60158539 21.11707841 64.60687843 23.99425461 64.61328125 26.87158203 C64.61262047 28.68668654 64.61133931 30.50179096 64.609375 32.31689453 C64.61139923 33.18354736 64.61342346 34.0502002 64.61550903 34.94311523 C64.59151259 41.01444444 64.59151259 41.01444444 63.4765625 42.12939453 C61.3039357 42.22895731 59.12803144 42.25739172 56.953125 42.25878906 C56.27183533 42.26054138 55.59054565 42.2622937 54.88861084 42.26409912 C52.62623583 42.26851695 50.36393837 42.26557991 48.1015625 42.26220703 C46.5359699 42.26288009 44.9703774 42.26385013 43.40478516 42.2651062 C40.11945605 42.26658308 36.83415408 42.26442894 33.54882812 42.25976562 C29.32835734 42.25406834 25.10795014 42.25734739 20.88748169 42.26333809 C17.65339678 42.26694397 14.41932705 42.26580499 11.1852417 42.2632103 C9.62864169 42.2625411 8.07204032 42.26336919 6.51544189 42.26568985 C4.34359054 42.26821683 2.17184354 42.26437518 0 42.25878906 C-1.23830566 42.25799347 -2.47661133 42.25719788 -3.75244141 42.25637817 C-6.5234375 42.12939453 -6.5234375 42.12939453 -7.5234375 41.12939453 C-7.62454103 38.18403883 -7.66313029 35.26261893 -7.65625 32.31689453 C-7.65720673 31.43283936 -7.65816345 30.54878418 -7.65914917 29.63793945 C-7.65983101 27.76497324 -7.65797643 25.89200467 -7.65380859 24.01904297 C-7.64846039 21.14171066 -7.65375343 18.26453445 -7.66015625 15.38720703 C-7.65949547 13.57210252 -7.65821431 11.7569981 -7.65625 9.94189453 C-7.65827423 9.0752417 -7.66029846 8.20858887 -7.66238403 7.31567383 C-7.63313167 -0.08545363 -7.27170073 0.00467196 0 0 Z " fill="#D9DDDE" transform="translate(1040.5234375,544.87060546875)"/>
<path d="M0 0 C1.23363281 0.01546875 2.46726562 0.0309375 3.73828125 0.046875 C6.6875 0.25 6.6875 0.25 7.6875 1.25 C7.78858314 3.24787845 7.81713062 5.24957138 7.8125 7.25 C7.81636719 8.8896875 7.81636719 8.8896875 7.8203125 10.5625 C7.66667662 14.82815515 7.21426045 19.01671788 6.6875 23.25 C5.43195312 23.26417969 4.17640625 23.27835937 2.8828125 23.29296875 C-10.50364809 23.46766964 -10.50364809 23.46766964 -22.3125 29.25 C-23.16432861 29.82161865 -24.01615723 30.3932373 -24.89379883 30.98217773 C-29.21803897 35.39505864 -28.03676687 42.34729186 -28.01953125 48.08203125 C-28.03265435 49.44254259 -28.04796047 50.80303447 -28.06535339 52.16349792 C-28.10514649 55.73263865 -28.11538999 59.30126909 -28.11938477 62.87060547 C-28.12872721 66.51740951 -28.16614751 70.16391506 -28.20117188 73.81054688 C-28.26568926 80.95702615 -28.29638017 88.10322378 -28.3125 95.25 C-36.5625 95.25 -44.8125 95.25 -53.3125 95.25 C-53.3125 64.89 -53.3125 34.53 -53.3125 3.25 C-46.3825 3.25 -39.4525 3.25 -32.3125 3.25 C-30.3125 12.25 -30.3125 12.25 -30.3125 16.25 C-29.83941406 15.81429688 -29.36632812 15.37859375 -28.87890625 14.9296875 C-20.56550904 7.44276838 -11.64668519 -0.24597012 0 0 Z " fill="#0C3265" transform="translate(520.3125,460.75)"/>
<path d="M0 0 C0.95003906 -0.00257813 1.90007813 -0.00515625 2.87890625 -0.0078125 C5.4375 0.125 5.4375 0.125 8.4375 1.125 C8.46502977 3.10408485 8.48413002 5.08328731 8.5 7.0625 C8.51160156 8.16464844 8.52320313 9.26679688 8.53515625 10.40234375 C8.42276853 14.68656352 7.97230509 18.87610315 7.4375 23.125 C6.18195312 23.13917969 4.92640625 23.15335937 3.6328125 23.16796875 C-7.2435334 23.42429166 -16.46487508 23.81673901 -24.5625 31.9375 C-25.2225 32.659375 -25.8825 33.38125 -26.5625 34.125 C-27.2225 34.125 -27.8825 34.125 -28.5625 34.125 C-28.5625 54.255 -28.5625 74.385 -28.5625 95.125 C-36.4825 95.125 -44.4025 95.125 -52.5625 95.125 C-52.5625 64.435 -52.5625 33.745 -52.5625 2.125 C-45.6325 2.125 -38.7025 2.125 -31.5625 2.125 C-30.5725 6.745 -29.5825 11.365 -28.5625 16.125 C-27.469375 14.949375 -26.37625 13.77375 -25.25 12.5625 C-17.99119157 5.29075252 -10.42167509 -0.0283583 0 0 Z " fill="#0C3367" transform="translate(780.5625,460.875)"/>
<path d="M0 0 C0.68128967 -0.00175232 1.36257935 -0.00350464 2.06451416 -0.00531006 C4.32688917 -0.00972789 6.58918663 -0.00679084 8.8515625 -0.00341797 C10.4171551 -0.00409103 11.9827476 -0.00506107 13.54833984 -0.00631714 C16.83366895 -0.00779402 20.11897092 -0.00563988 23.40429688 -0.00097656 C27.62476766 0.00472073 31.84517486 0.00144167 36.06564331 -0.00454903 C39.29972822 -0.00815491 42.53379795 -0.00701593 45.7678833 -0.00442123 C47.32448331 -0.00375204 48.88108468 -0.00458012 50.43768311 -0.00690079 C52.60953446 -0.00942777 54.78128146 -0.00558612 56.953125 0 C58.19143066 0.00079559 59.42973633 0.00159119 60.70556641 0.00241089 C63.4765625 0.12939453 63.4765625 0.12939453 64.4765625 1.12939453 C64.57763124 4.00203509 64.61625922 6.85013081 64.609375 9.72314453 C64.61033173 10.58500366 64.61128845 11.44686279 64.61227417 12.33483887 C64.612956 14.16072665 64.61110154 15.98661685 64.60693359 17.8125 C64.60158536 20.61740531 64.60687849 23.42215049 64.61328125 26.22705078 C64.61262047 27.99658239 64.61133931 29.76611389 64.609375 31.53564453 C64.61139923 32.38042358 64.61342346 33.22520264 64.61550903 34.09558105 C64.59151281 40.01444422 64.59151281 40.01444422 63.4765625 41.12939453 C61.33999208 41.23418359 59.19991912 41.26796107 57.06079102 41.2746582 C56.0558963 41.27969612 56.0558963 41.27969612 55.03070068 41.28483582 C52.80560476 41.29437174 50.58058387 41.29629025 48.35546875 41.29736328 C46.81469186 41.30057406 45.27391528 41.30393799 43.73313904 41.30744934 C40.49908745 41.31344725 37.26506262 41.31528857 34.03100586 41.31469727 C29.8800873 41.31459561 25.72933967 41.32824807 21.57846165 41.34546947 C18.39494534 41.35656993 15.21147062 41.35861708 12.02793694 41.35808754 C10.49727731 41.35927061 8.9666167 41.36371056 7.43597603 41.37141991 C5.29777062 41.38118052 3.15993952 41.37835759 1.02172852 41.37231445 C-0.19659164 41.37373947 -1.4149118 41.37516449 -2.67015076 41.37663269 C-5.5234375 41.12939453 -5.5234375 41.12939453 -7.5234375 39.12939453 C-7.7110478 36.27224989 -7.77901068 33.51373467 -7.75390625 30.65673828 C-7.75344803 29.81849014 -7.75298981 28.980242 -7.7525177 28.11659241 C-7.74949474 26.34374578 -7.74160713 24.57090183 -7.72924805 22.7980957 C-7.71098815 20.07444931 -7.70873835 17.35114262 -7.70898438 14.62744141 C-7.70406942 12.90803741 -7.6982412 11.18863572 -7.69140625 9.46923828 C-7.69029343 8.64947006 -7.6891806 7.82970184 -7.68803406 6.98509216 C-7.62706442 -0.22303917 -7.05907927 0.00453536 0 0 Z " fill="#D9DCDD" transform="translate(1040.5234375,437.87060546875)"/>
<path d="M0 0 C0.33 0 0.66 0 1 0 C1.06058594 1.13179687 1.12117188 2.26359375 1.18359375 3.4296875 C1.26799917 4.91147145 1.35264717 6.3932416 1.4375 7.875 C1.47681641 8.62136719 1.51613281 9.36773438 1.55664062 10.13671875 C1.71573624 14.19986864 1.71573624 14.19986864 3 18 C77.58 18.33 152.16 18.66 229 19 C229 19.33 229 19.66 229 20 C174.55 20.495 174.55 20.495 119 21 C119 21.99 119 22.98 119 24 C155.96 24 192.92 24 231 24 C231 24.33 231 24.66 231 25 C193.71 25 156.42 25 118 25 C118 34.9 118 44.8 118 55 C119.65 55.33 121.3 55.66 123 56 C126.33559328 58.24958617 128.63819061 60.16217353 130 64 C130 64.99 130 65.98 130 67 C158.38 67 186.76 67 216 67 C216.33 68.65 216.66 70.3 217 72 C216 73 216 73 212.6864624 73.10438538 C211.17865002 73.1006178 209.67084601 73.09148212 208.16308594 73.07836914 C206.4605109 73.07225119 204.75793517 73.06632464 203.05535889 73.06056213 C202.14788658 73.05588991 201.24041428 73.05121769 200.30544281 73.04640388 C195.51741089 73.02731394 190.72944942 73.04242928 185.94140625 73.05273438 C179.84006222 73.06499047 173.73941884 73.06666427 167.63818359 73.02416992 C162.71529715 72.99078152 157.7938005 72.99619491 152.87091827 73.02773857 C150.99384126 73.03266893 149.11667079 73.02335037 147.23973846 72.99952888 C144.60975362 72.96811786 141.98439992 72.98628746 139.35449219 73.01586914 C138.19159416 72.98439537 138.19159416 72.98439537 137.00520325 72.95228577 C134.51596251 72.93154575 134.51596251 72.93154575 131 74 C129.33511023 75.90883285 128.20288225 77.78532056 127.05638504 80.04045773 C125.28640464 83.32368429 123.37411069 84.50039525 120 86 C114.69487052 86.76013796 110.44084738 86.68112785 105.5625 84.375 C102.76797975 81.78495684 100.84383241 79.33308167 99 76 C99 75.01 99 74.02 99 73 C70.29 73 41.58 73 12 73 C11.67 71.68 11.34 70.36 11 69 C13.55930462 66.44069538 15.21804776 66.76436366 18.70651245 66.75115967 C19.90197189 66.7619455 19.90197189 66.7619455 21.12158203 66.77294922 C21.96068115 66.77265717 22.79978027 66.77236511 23.66430664 66.77206421 C26.44557944 66.77346067 29.22658634 66.78903665 32.0078125 66.8046875 C33.93309381 66.80841651 35.85837701 66.81126401 37.78366089 66.81326294 C42.8570477 66.82090824 47.93032044 66.8405644 53.00366211 66.8626709 C58.17820696 66.88311005 63.35277019 66.89226052 68.52734375 66.90234375 C78.68494602 66.92380946 88.84246353 66.95795619 99 67 C99.17789062 65.84371094 99.17789062 65.84371094 99.359375 64.6640625 C100.46944127 60.0478113 103.88042689 57.75506094 107.6875 55.1875 C110 54 110 54 112 54 C112 44.43 112 34.86 112 25 C108.6887207 25.02094727 105.37744141 25.04189453 101.96582031 25.06347656 C91.03746276 25.12969239 80.10909646 25.1739138 69.18059158 25.20724869 C62.55322935 25.22814226 55.92607227 25.25649282 49.29882812 25.30175781 C42.90570809 25.3451515 36.51278564 25.36912377 30.11952972 25.37950897 C27.67781207 25.38691192 25.23610549 25.40136773 22.79447174 25.42292023 C19.37999418 25.45186718 15.96633791 25.45595952 12.55175781 25.45410156 C11.53755768 25.46848267 10.52335754 25.48286377 9.47842407 25.49768066 C2.63901688 25.45728828 2.63901688 25.45728828 -0.635849 23.11375427 C-2.28076182 20.56495908 -2.41651426 19.27610547 -2.20703125 16.26953125 C-2.12678711 14.94211914 -2.12678711 14.94211914 -2.04492188 13.58789062 C-1.96822266 12.67201172 -1.89152344 11.75613281 -1.8125 10.8125 C-1.72645508 9.4212793 -1.72645508 9.4212793 -1.63867188 8.00195312 C-1.17416233 1.17416233 -1.17416233 1.17416233 0 0 Z " fill="#224C7D" transform="translate(1031,625)"/>
<path d="M0 0 C1.38445312 0.69416016 1.38445312 0.69416016 2.796875 1.40234375 C13.95539165 7.53242057 23.74645958 17.61424894 31 28 C31 28.66 31 29.32 31 30 C31.87011719 29.60167969 31.87011719 29.60167969 32.7578125 29.1953125 C48.40045471 22.12256668 63.95952565 20.59048492 80.20703125 26.45703125 C97.62657208 33.28366731 109.51489186 45.55490659 117.0546875 62.45703125 C117.98749825 64.96636927 118.5551723 67.36415925 119 70 C115.535 70.495 115.535 70.495 112 71 C111.58041016 69.87464844 111.58041016 69.87464844 111.15234375 68.7265625 C105.04327888 53.12978596 96.10467892 42.3967155 81 35 C69.3706873 29.96310023 55.38422783 28.68935036 43.28125 33 C39.81547282 34.51924479 36.45243587 36.20324918 33.12890625 38.01171875 C31 39 31 39 28 39 C26.4921875 36.7265625 26.4921875 36.7265625 24.875 33.625 C14.83409128 15.82330557 -1.68043224 5.74640853 -20.8125 -0.375 C-37.98150735 -4.56083237 -54.90450501 -3.03146422 -71 4 C-72.47339844 4.60908203 -72.47339844 4.60908203 -73.9765625 5.23046875 C-87.80697877 11.50339749 -100.11506467 23.57763396 -107 37 C-107.37769531 37.69351563 -107.75539063 38.38703125 -108.14453125 39.1015625 C-113.15802489 49.12854977 -114.33301181 60.93719582 -115 72 C-115.55945313 72.06316406 -116.11890625 72.12632812 -116.6953125 72.19140625 C-131.29804938 74.4217278 -144.46355954 83.13310513 -154.0078125 94.19140625 C-158.63718825 100.71791834 -162.47198228 108.41594685 -165 116 C-166.98 116 -168.96 116 -171 116 C-170.73284022 102.64201113 -161.53344534 90.38890008 -152.3515625 81.41015625 C-143.3660195 73.40025532 -133.43619806 68.63720061 -122 65 C-121.76216797 63.15148437 -121.76216797 63.15148437 -121.51953125 61.265625 C-119.54230336 46.85781617 -116.04285486 35.63429422 -107 24 C-106.28457031 23.06929688 -105.56914063 22.13859375 -104.83203125 21.1796875 C-90.73377952 3.36881527 -72.34349737 -6.5860252 -49.90234375 -9.71875 C-32.02069893 -11.4515608 -15.89213209 -8.10358718 0 0 Z " fill="#0E81B6" transform="translate(1120,308)"/>
<path d="M0 0 C29.54124748 0 29.54124748 0 36.1640625 5.94140625 C41.9881472 12.24116321 42.53346337 17.69420547 42.33203125 26.125 C41.76849997 32.70174155 39.83534821 37.53798946 34.8046875 41.90625 C29.26616556 45.78138746 25.11306307 47.13358012 18.359375 47.09765625 C17.39483398 47.09515869 16.43029297 47.09266113 15.43652344 47.09008789 C13.61169434 47.07643188 13.61169434 47.07643188 11.75 47.0625 C7.8725 47.041875 3.995 47.02125 0 47 C0 31.49 0 15.98 0 0 Z " fill="#F7FBFC" transform="translate(829,455)"/>
<path d="M0 0 C17.14151907 -0.11676621 34.28291415 -0.20495503 51.42473984 -0.25906086 C59.38388101 -0.28485016 67.34277518 -0.32001417 75.30175781 -0.37719727 C82.23827218 -0.42701048 89.17460768 -0.45928575 96.11129594 -0.47044247 C99.78482849 -0.47696492 103.45784932 -0.49230841 107.13121796 -0.52865028 C111.23061386 -0.56887857 115.32911837 -0.5699508 119.42871094 -0.56762695 C120.64862732 -0.58560333 121.8685437 -0.60357971 123.12542725 -0.62210083 C131.30443362 -0.57173476 131.30443362 -0.57173476 134.75434875 2.26399231 C135.94701142 4.88361336 136.50105165 6.49578992 136.50170898 9.34375 C136.51108994 10.16810547 136.52047089 10.99246094 136.53013611 11.84179688 C136.51328514 13.15760742 136.51328514 13.15760742 136.49609375 14.5 C136.49754898 15.41330078 136.49900421 16.32660156 136.50050354 17.26757812 C136.49884726 19.19404295 136.48731641 21.12052137 136.46655273 23.046875 C136.43759684 25.99015699 136.44594976 28.93163676 136.45898438 31.875 C136.45274649 33.75000873 136.44435517 35.62501178 136.43359375 37.5 C136.43652939 38.37720703 136.43946503 39.25441406 136.44248962 40.15820312 C136.36220485 45.37598017 135.87564155 49.12435845 132 53 C130.51983606 53.09568576 129.03511727 53.12188268 127.55186462 53.12025452 C126.11098228 53.12231651 126.11098228 53.12231651 124.64099121 53.12442017 C123.57860229 53.12082489 122.51621338 53.11722961 121.42163086 53.11352539 C119.75355125 53.11374443 119.75355125 53.11374443 118.05177307 53.1139679 C114.35611049 53.11326821 110.66049759 53.1054732 106.96484375 53.09765625 C104.41036507 53.09579227 101.85588603 53.09436827 99.30140686 53.09336853 C93.2523829 53.08993344 87.20338045 53.08204264 81.15436512 53.07201904 C74.26934846 53.06085683 67.38433096 53.05534718 60.49930751 53.05032361 C46.3328617 53.03986 32.16643183 53.02226123 18 53 C18 52.01 18 51.02 18 50 C-19.95 50 -57.9 50 -97 50 C-97 49.67 -97 49.34 -97 49 C-95.26199804 48.99365209 -95.26199804 48.99365209 -93.48888493 48.98717594 C-66.01258551 48.88659944 -38.53630974 48.78090929 -11.06005451 48.66888306 C-7.68155668 48.65511273 -4.30305867 48.64138575 -0.92456055 48.62768555 C-0.25193453 48.62495724 0.42069148 48.62222894 1.1137001 48.61941796 C12.01881184 48.57528815 22.923934 48.53467344 33.829064 48.49534739 C45.01055716 48.45494687 56.19203151 48.41071842 67.37349659 48.36312145 C73.65738731 48.33649476 79.94127409 48.31164114 86.2251873 48.29092598 C92.13233749 48.27139829 98.03945046 48.24726634 103.94656754 48.21950912 C106.12148045 48.21011812 108.29640156 48.20245028 110.47132683 48.19658089 C113.42688429 48.18835438 116.38235057 48.17408774 119.33787537 48.15821838 C120.21042589 48.15724028 121.08297642 48.15626217 121.98196787 48.15525442 C125.79993959 48.50077564 125.79993959 48.50077564 129 47 C129.101137 43.98191937 129.13968909 40.98719487 129.1328125 37.96875 C129.13376923 37.06249878 129.13472595 36.15624756 129.13571167 35.22253418 C129.13639353 33.30248953 129.13453882 31.38244259 129.13037109 29.46240234 C129.12502292 26.51264296 129.13031588 23.56303586 129.13671875 20.61328125 C129.13605797 18.75260383 129.13477681 16.8919265 129.1328125 15.03125 C129.13584885 13.69846008 129.13584885 13.69846008 129.13894653 12.33874512 C129.525828 8.35171142 129.525828 8.35171142 128 5 C125.10513911 4.88962846 122.23362561 4.84502768 119.33787537 4.84178162 C118.41822166 4.83684364 117.49856795 4.83190566 116.55104595 4.82681805 C113.44475848 4.81136208 110.33849178 4.80306064 107.23217773 4.79467773 C105.01530776 4.78510556 102.79843965 4.77509589 100.58157349 4.76467896 C94.54258088 4.73755216 88.50358041 4.71658483 82.46456027 4.69667697 C76.16109693 4.67486519 69.85765809 4.64745307 63.55421448 4.62062073 C52.96755031 4.57631631 42.38087711 4.53549214 31.79418945 4.49731445 C20.88792948 4.45797485 9.98168071 4.41655233 -0.92456055 4.37231445 C-1.59637183 4.36959018 -2.26818311 4.36686591 -2.96035231 4.36405908 C-6.33049785 4.35037986 -9.70064322 4.33665953 -13.0707885 4.32291877 C-41.04716943 4.20899868 -69.02357391 4.10218159 -97 4 C-97 3.67 -97 3.34 -97 3 C-22.42 3 52.16 3 129 3 C129.33 2.34 129.66 1.68 130 1 C87.1 1 44.2 1 0 1 C0 0.67 0 0.34 0 0 Z " fill="#113A6D" transform="translate(1132,596)"/>
<path d="M0 0 C0.33 0 0.66 0 1 0 C0.93296875 1.31613281 0.8659375 2.63226563 0.796875 3.98828125 C0.24922296 14.3632867 0.24922296 14.3632867 4.45703125 23.390625 C6.47817466 25.2647941 8.64773558 26.90971147 10.8515625 28.5625 C20.28978077 35.8695077 26.90249759 48.32977217 29 60 C30.62558228 76.11366793 28.93056749 91.75677807 18.765625 104.8828125 C18.18296875 105.58148438 17.6003125 106.28015625 17 107 C16.45859375 107.67804688 15.9171875 108.35609375 15.359375 109.0546875 C12.85353038 112.1047307 10.40868332 114.93044227 7 117 C6.34 117 5.68 117 5 117 C4.1462141 110.16971279 4.1462141 110.16971279 6.27734375 107.25 C6.84582031 106.6725 7.41429687 106.095 8 105.5 C11.75165604 101.66412311 14.01852076 97.57706021 16.375 92.8125 C16.72046875 92.12285156 17.0659375 91.43320312 17.421875 90.72265625 C22.50560603 80.2298354 22.76950966 66.67338768 20.1640625 55.375 C18.98320349 52.39511416 17.64349825 49.75107315 16 47 C15.38382813 45.95199219 14.76765625 44.90398437 14.1328125 43.82421875 C10.38830434 37.85777481 6.63559828 33.22669871 1 29 C1 33.29 1 37.58 1 42 C0.67 42 0.34 42 0 42 C-0.99371474 27.90453858 -0.89190447 14.10058495 0 0 Z " fill="#0F81B4" transform="translate(1269,385)"/>
<path d="M0 0 C4.27887529 3.10218459 6.21482778 5.67181114 7.5 10.8125 C7.5 14.4425 7.5 18.0725 7.5 21.8125 C-4.38 21.8125 -16.26 21.8125 -28.5 21.8125 C-28.5 13.66204122 -27.41822978 7.73072978 -21.5 1.8125 C-15.31778699 -2.66960443 -7.00836337 -2.37783757 0 0 Z " fill="#F9FAFB" transform="translate(422.5,480.1875)"/>
<path d="M0 0 C3.87490989 3.08005658 5.721855 6.61165377 7.1875 11.375 C7.52946854 14.8801775 7.4375 18.41568061 7.4375 21.9375 C-4.4425 21.9375 -16.3225 21.9375 -28.5625 21.9375 C-28.5625 12.58376999 -28.17767929 9.46999144 -22 3.125 C-15.99950866 -2.72063995 -7.81850097 -2.33183362 0 0 Z " fill="#FAFBFC" transform="translate(683.5625,480.0625)"/>
<path d="M0 0 C36.63 0 73.26 0 111 0 C111.495 1.98 111.495 1.98 112 4 C75.04 4 38.08 4 0 4 C0 2.68 0 1.36 0 0 Z " fill="#1F1F1F" transform="translate(1074,621)"/>
<path d="M0 0 C36.63 0 73.26 0 111 0 C111.495 1.98 111.495 1.98 112 4 C75.04 4 38.08 4 0 4 C0 2.68 0 1.36 0 0 Z " fill="#080809" transform="translate(1074,405)"/>
<path d="M0 0 C36.63 0 73.26 0 111 0 C111.495 1.98 111.495 1.98 112 4 C75.04 4 38.08 4 0 4 C0 2.68 0 1.36 0 0 Z " fill="#1A191A" transform="translate(1074,511)"/>
<path d="M0 0 C0.88033242 0.00291284 1.76066484 0.00582568 2.66767401 0.00882679 C3.59549482 0.00797237 4.52331563 0.00711794 5.47925222 0.00623763 C8.61319985 0.00457998 11.74709489 0.01010882 14.88103765 0.01555592 C17.11760991 0.01583775 19.35418225 0.01568013 21.59075445 0.01511341 C27.68348417 0.0148253 33.77619439 0.02072424 39.86891955 0.02768737 C46.22842159 0.03391864 52.58792402 0.03452453 58.94742864 0.03571278 C69.62826441 0.03847248 80.30909243 0.04472801 90.98992437 0.05364186 C101.99317921 0.06281526 112.9964321 0.06989644 123.99969 0.07414967 C125.01636791 0.07454375 125.01636791 0.07454375 126.05358476 0.0749458 C129.45369829 0.0762508 132.85381183 0.07751452 136.25392538 0.0787577 C164.47916247 0.08913118 192.70439161 0.10682437 220.92962164 0.12908131 C220.92962164 0.45908131 220.92962164 0.78908131 220.92962164 1.12908131 C146.34962164 1.45908131 71.76962164 1.78908131 -5.07037836 2.12908131 C-5.07037836 14.99908131 -5.07037836 27.86908131 -5.07037836 41.12908131 C38.48962164 41.45908131 82.04962164 41.78908131 126.92962164 42.12908131 C126.92962164 42.45908131 126.92962164 42.78908131 126.92962164 43.12908131 C109.75350995 43.17575488 92.577418 43.21104732 75.40125746 43.23270565 C67.42647841 43.24302826 59.45173871 43.25710733 51.47698492 43.27996022 C44.52803926 43.29986404 37.57912208 43.31279058 30.63014871 43.3172583 C26.94904446 43.3198708 23.26802174 43.32603158 19.58694357 43.34054142 C15.4825452 43.35658938 11.37828952 43.35706294 7.27385992 43.35613209 C5.43319952 43.36691792 5.43319952 43.36691792 3.55535406 43.37792164 C1.88522756 43.37379765 1.88522756 43.37379765 0.18136114 43.36959034 C-0.79020867 43.37143393 -1.76177847 43.37327751 -2.76278979 43.37517697 C-5.07037836 43.12908131 -5.07037836 43.12908131 -7.07037836 41.12908131 C-7.25814003 38.12772518 -7.32588019 35.22020985 -7.30084711 32.21892506 C-7.30038889 31.33628483 -7.29993067 30.4536446 -7.29945856 29.5442577 C-7.29643524 27.6772549 -7.28854654 25.81025464 -7.27618891 23.94329029 C-7.25793062 21.07479192 -7.2556792 18.2066161 -7.25592524 15.33806568 C-7.25101024 13.527516 -7.24518201 11.71696851 -7.23834711 9.90642506 C-7.23723429 9.04290928 -7.23612147 8.1793935 -7.23497492 7.28971058 C-7.17809307 0.20785258 -7.08244109 0.01778869 0 0 Z " fill="#DCE7F0" transform="translate(1040.0703783631325,384.8709186911583)"/>
<path d="M0 0 C0.91644287 0.00523682 1.83288574 0.01047363 2.77709961 0.01586914 C3.76645508 0.0190918 4.75581055 0.02231445 5.77514648 0.02563477 C6.81606445 0.03401367 7.85698242 0.04239258 8.92944336 0.05102539 C10.49662109 0.05779297 10.49662109 0.05779297 12.09545898 0.06469727 C14.68600996 0.07652627 17.27644895 0.0930085 19.86694336 0.11352539 C19.89379431 2.5927634 19.91370883 5.07171379 19.92944336 7.55102539 C19.93782227 8.25807617 19.94620117 8.96512695 19.95483398 9.69360352 C19.96347924 11.50046098 19.91914347 13.30740142 19.86694336 15.11352539 C18.24493821 16.73553054 16.44671305 16.24343289 14.21069336 16.24633789 C12.80110352 16.24827148 12.80110352 16.24827148 11.36303711 16.25024414 C10.37432617 16.24637695 9.38561523 16.24250977 8.36694336 16.23852539 C7.37823242 16.24239258 6.38952148 16.24625977 5.37084961 16.25024414 C4.43112305 16.24895508 3.49139648 16.24766602 2.52319336 16.24633789 C1.65500977 16.24520996 0.78682617 16.24408203 -0.10766602 16.24291992 C-2.13305664 16.11352539 -2.13305664 16.11352539 -3.13305664 15.11352539 C-3.23214966 12.78192484 -3.26276168 10.44722598 -3.25805664 8.11352539 C-3.26063477 6.83477539 -3.26321289 5.55602539 -3.26586914 4.23852539 C-3.09272735 0.16460092 -3.09272735 0.16460092 0 0 Z " fill="#03A9B0" transform="translate(1202.133056640625,615.886474609375)"/>
<path d="M0 0 C0.91644287 0.00523682 1.83288574 0.01047363 2.77709961 0.01586914 C3.76645508 0.0190918 4.75581055 0.02231445 5.77514648 0.02563477 C6.81606445 0.03401367 7.85698242 0.04239258 8.92944336 0.05102539 C10.49662109 0.05779297 10.49662109 0.05779297 12.09545898 0.06469727 C14.68600996 0.07652627 17.27644895 0.0930085 19.86694336 0.11352539 C19.89379431 2.5927634 19.91370883 5.07171379 19.92944336 7.55102539 C19.93782227 8.25807617 19.94620117 8.96512695 19.95483398 9.69360352 C19.96347924 11.50046098 19.91914347 13.30740142 19.86694336 15.11352539 C18.24493821 16.73553054 16.44671305 16.24343289 14.21069336 16.24633789 C12.80110352 16.24827148 12.80110352 16.24827148 11.36303711 16.25024414 C10.37432617 16.24637695 9.38561523 16.24250977 8.36694336 16.23852539 C7.37823242 16.24239258 6.38952148 16.24625977 5.37084961 16.25024414 C4.43112305 16.24895508 3.49139648 16.24766602 2.52319336 16.24633789 C1.65500977 16.24520996 0.78682617 16.24408203 -0.10766602 16.24291992 C-2.13305664 16.11352539 -2.13305664 16.11352539 -3.13305664 15.11352539 C-3.23214966 12.78192484 -3.26276168 10.44722598 -3.25805664 8.11352539 C-3.26063477 6.83477539 -3.26321289 5.55602539 -3.26586914 4.23852539 C-3.09272735 0.16460092 -3.09272735 0.16460092 0 0 Z " fill="#09A6B0" transform="translate(1202.133056640625,505.886474609375)"/>
<path d="M0 0 C1.33708008 -0.00193359 1.33708008 -0.00193359 2.70117188 -0.00390625 C3.63380859 -0.00003906 4.56644531 0.00382812 5.52734375 0.0078125 C6.46384766 0.00394531 7.40035156 0.00007813 8.36523438 -0.00390625 C9.70038086 -0.00197266 9.70038086 -0.00197266 11.0625 0 C11.88242432 0.00112793 12.70234863 0.00225586 13.54711914 0.00341797 C15.46484375 0.1328125 15.46484375 0.1328125 16.46484375 1.1328125 C16.53797942 3.66330652 16.55731902 6.16586087 16.52734375 8.6953125 C16.52283203 9.40623047 16.51832031 10.11714844 16.51367188 10.84960938 C16.50185239 12.61071263 16.48391638 14.37177286 16.46484375 16.1328125 C12.81902688 16.16168762 9.17323912 16.17956835 5.52734375 16.1953125 C3.9659668 16.20788086 3.9659668 16.20788086 2.37304688 16.22070312 C1.38369141 16.22392578 0.39433594 16.22714844 -0.625 16.23046875 C-1.99966431 16.23832397 -1.99966431 16.23832397 -3.40209961 16.24633789 C-5.53515625 16.1328125 -5.53515625 16.1328125 -6.53515625 15.1328125 C-6.60787366 12.77967695 -6.61886493 10.42447582 -6.59765625 8.0703125 C-6.58863281 6.77996094 -6.57960938 5.48960937 -6.5703125 4.16015625 C-6.55871094 3.16113281 -6.54710937 2.16210938 -6.53515625 1.1328125 C-4.15076916 -0.05938104 -2.65859623 0.00365228 0 0 Z " fill="#0BABB2" transform="translate(1205.53515625,398.8671875)"/>
<path d="M0 0 C0.89460938 -0.00128906 1.78921875 -0.00257813 2.7109375 -0.00390625 C3.65195313 -0.00003906 4.59296875 0.00382812 5.5625 0.0078125 C6.97402344 0.00201172 6.97402344 0.00201172 8.4140625 -0.00390625 C9.75597656 -0.00197266 9.75597656 -0.00197266 11.125 0 C11.95128906 0.00112793 12.77757812 0.00225586 13.62890625 0.00341797 C15.5625 0.1328125 15.5625 0.1328125 16.5625 1.1328125 C16.66159302 3.46441305 16.69220504 5.79911192 16.6875 8.1328125 C16.69136719 10.0509375 16.69136719 10.0509375 16.6953125 12.0078125 C16.5625 15.1328125 16.5625 15.1328125 15.5625 16.1328125 C14.08597336 16.23162047 12.60482764 16.26360495 11.125 16.265625 C9.78308594 16.26755859 9.78308594 16.26755859 8.4140625 16.26953125 C7.47304687 16.26566406 6.53203125 16.26179687 5.5625 16.2578125 C4.15097656 16.26361328 4.15097656 16.26361328 2.7109375 16.26953125 C1.81632812 16.26824219 0.92171875 16.26695312 0 16.265625 C-0.82628906 16.26449707 -1.65257812 16.26336914 -2.50390625 16.26220703 C-4.4375 16.1328125 -4.4375 16.1328125 -5.4375 15.1328125 C-5.53659302 12.80121195 -5.56720504 10.46651308 -5.5625 8.1328125 C-5.56507812 6.8540625 -5.56765625 5.5753125 -5.5703125 4.2578125 C-5.36940424 -0.46944066 -4.30363567 0.0058747 0 0 Z " fill="#FAA927" transform="translate(1232.4375,505.8671875)"/>
<path d="M0 0 C0.89460938 -0.00128906 1.78921875 -0.00257813 2.7109375 -0.00390625 C3.65195313 -0.00003906 4.59296875 0.00382813 5.5625 0.0078125 C6.97402344 0.00201172 6.97402344 0.00201172 8.4140625 -0.00390625 C9.75597656 -0.00197266 9.75597656 -0.00197266 11.125 0 C11.95128906 0.00112793 12.77757812 0.00225586 13.62890625 0.00341797 C15.5625 0.1328125 15.5625 0.1328125 16.5625 1.1328125 C16.63521741 3.48594805 16.64620868 5.84114918 16.625 8.1953125 C16.61597656 9.48566406 16.60695313 10.77601563 16.59765625 12.10546875 C16.58605469 13.10449219 16.57445312 14.10351562 16.5625 15.1328125 C14.23086164 16.29863168 12.84096518 16.26186859 10.24609375 16.265625 C8.97668945 16.26755859 8.97668945 16.26755859 7.68164062 16.26953125 C6.79669922 16.26566406 5.91175781 16.26179687 5 16.2578125 C4.11119141 16.26167969 3.22238281 16.26554688 2.30664062 16.26953125 C1.46166016 16.26824219 0.61667969 16.26695312 -0.25390625 16.265625 C-1.42095093 16.26393311 -1.42095093 16.26393311 -2.61157227 16.26220703 C-4.4375 16.1328125 -4.4375 16.1328125 -5.4375 15.1328125 C-5.53659302 12.80121195 -5.56720504 10.46651308 -5.5625 8.1328125 C-5.56507812 6.8540625 -5.56765625 5.5753125 -5.5703125 4.2578125 C-5.36940424 -0.46944066 -4.30363567 0.0058747 0 0 Z " fill="#FAAD2C" transform="translate(1232.4375,615.8671875)"/>
<path d="M0 0 C0.89460938 -0.00128906 1.78921875 -0.00257813 2.7109375 -0.00390625 C3.65195313 -0.00003906 4.59296875 0.00382812 5.5625 0.0078125 C6.97402344 0.00201172 6.97402344 0.00201172 8.4140625 -0.00390625 C9.75597656 -0.00197266 9.75597656 -0.00197266 11.125 0 C11.95128906 0.00112793 12.77757812 0.00225586 13.62890625 0.00341797 C15.5625 0.1328125 15.5625 0.1328125 16.5625 1.1328125 C16.63508946 3.31920703 16.64623783 5.50781639 16.625 7.6953125 C16.61597656 8.89285156 16.60695313 10.09039062 16.59765625 11.32421875 C16.58605469 12.25105469 16.57445312 13.17789062 16.5625 14.1328125 C11.93433267 16.48863315 7.80715865 16.36802719 2.75 16.2578125 C1.56760742 16.24427734 1.56760742 16.24427734 0.36132812 16.23046875 C-1.57174666 16.20703754 -3.5046638 16.17117088 -5.4375 16.1328125 C-5.46435095 13.65357449 -5.48426547 11.1746241 -5.5 8.6953125 C-5.51256836 7.63473633 -5.51256836 7.63473633 -5.52539062 6.55273438 C-5.53403588 4.74587691 -5.48970011 2.93893647 -5.4375 1.1328125 C-3.84812444 -0.45656306 -2.19850154 0.00300107 0 0 Z " fill="#FAA51D" transform="translate(1232.4375,399.8671875)"/>
<path d="M0 0 C7.59 0 15.18 0 23 0 C23 4.62 23 9.24 23 14 C15.41 14 7.82 14 0 14 C0 9.38 0 4.76 0 0 Z " fill="#FAB946" transform="translate(1070,451)"/>
<path d="M0 0 C3.99062431 2.48472834 5.68655935 3.96748964 7.0625 8.5 C6.99256618 12.41629414 6.48078416 14.00595015 4 17 C0.57840405 19.56619697 -2.84844133 19.50984054 -7 19 C-10.53421028 16.46458828 -11.77241926 14.69538558 -13.125 10.5625 C-12.95278418 5.65434903 -11.46551473 4.38492136 -8 1 C-5.09704195 -0.45147903 -3.22738221 -0.37239025 0 0 Z " fill="#131C1F" transform="translate(1056,502)"/>
<path d="M0 0 C4.29477197 2.46551724 4.29477197 2.46551724 6 5 C6.73810279 8.14252854 6.70582012 10.85321863 6 14 C4.12379387 16.50160818 2.76108697 17.61945652 0 19 C-4.31147425 19.48809142 -6.29946463 19.50255798 -9.875 16.9375 C-12.4553274 13.37057683 -13.15459256 11.4058879 -13 7 C-9.83292036 1.4482957 -6.34307041 -0.73189274 0 0 Z " fill="#0E1B20" transform="translate(1056,396)"/>
<path d="M0 0 C2.59426798 -0.27668225 4.91263646 -0.37295242 7.5 -0.3125 C8.18964844 -0.31572266 8.87929687 -0.31894531 9.58984375 -0.32226562 C14.73287408 -0.26712592 14.73287408 -0.26712592 17 2 C17.265625 4.49609375 17.265625 4.49609375 17.25 7.4375 C17.25515625 8.40558594 17.2603125 9.37367188 17.265625 10.37109375 C17 13 17 13 15 16 C12.37302936 16.22137393 9.99106036 16.28162025 7.375 16.1875 C6.66859375 16.17396484 5.9621875 16.16042969 5.234375 16.14648438 C3.48925872 16.1111104 1.74453392 16.05730221 0 16 C-1.70754834 13.02534237 -2.27317355 10.86139168 -2.25 7.4375 C-2.25773437 6.29087891 -2.25773437 6.29087891 -2.265625 5.12109375 C-2 3 -2 3 0 0 Z " fill="#0F396C" transform="translate(1044,450)"/>
<path d="M0 0 C3.0625 1.4375 3.0625 1.4375 5 4 C5.64167502 7.12243647 5.63723456 9.87697657 5 13 C3.12379387 15.50160818 1.76108697 16.61945652 -1 18 C-4.94796574 18.3724496 -7.33040033 18.34935635 -10.875 16.5 C-13.33060699 13.6110506 -14.02588753 11.77893936 -14.25 8.0390625 C-13.89870909 5.17384605 -12.7363809 3.12504304 -10.7265625 1.0703125 C-7.29981639 -1.05395998 -3.84042477 -0.78475226 0 0 Z " fill="#0D171A" transform="translate(1057,613)"/>
<path d="M0 0 C3.99104912 0.30178065 6.19416343 1.73413808 9 4.625 C10.52846661 7.68193322 10.23242445 10.25484547 10 13.625 C8.23984869 16.8100357 7.50109084 17.45796972 4 18.625 C-1.15235457 19.20671745 -1.15235457 19.20671745 -4 18.625 C-7.25932425 15.77309128 -8.73945496 13.87561619 -9.625 9.625 C-8.49306791 4.19172595 -5.76284951 0.30560566 0 0 Z " fill="#01A1E5" transform="translate(1145,685.375)"/>
<path d="M0 0 C0.79792969 0.00386719 1.59585937 0.00773438 2.41796875 0.01171875 C3.21589844 0.00785156 4.01382812 0.00398437 4.8359375 0 C10.79136108 0.01011108 10.79136108 0.01011108 11.91796875 1.13671875 C12.01670691 3.13471447 12.04768674 5.13629033 12.04296875 7.13671875 C12.04683594 8.77640625 12.04683594 8.77640625 12.05078125 10.44921875 C11.91796875 13.13671875 11.91796875 13.13671875 10.91796875 14.13671875 C8.07461827 14.2365885 5.26099712 14.27549756 2.41796875 14.26171875 C1.62003906 14.26558594 0.82210938 14.26945313 0 14.2734375 C-5.95542358 14.26332642 -5.95542358 14.26332642 -7.08203125 13.13671875 C-7.18076941 11.13872303 -7.21174924 9.13714717 -7.20703125 7.13671875 C-7.20960937 6.04359375 -7.2121875 4.95046875 -7.21484375 3.82421875 C-6.96791791 -1.17239819 -4.399251 0.00746902 0 0 Z " fill="#0B539B" transform="translate(1049.08203125,558.86328125)"/>
<path d="M0 0 C4.95 0 9.9 0 15 0 C15 4.62 15 9.24 15 14 C10.05 14 5.1 14 0 14 C0 9.38 0 4.76 0 0 Z " fill="#FCB12E" transform="translate(1078,559)"/>
<path d="M0 0 C-0.66 0 -1.32 0 -2 0 C-2 15.51 -2 31.02 -2 47 C-2.33 47 -2.66 47 -3 47 C-3 33.47 -3 19.94 -3 6 C-9.93 6 -16.86 6 -24 6 C-24 4.68 -24 3.36 -24 2 C-20.75198175 1.46626918 -17.50138509 0.95028732 -14.25 0.4375 C-13.32960938 0.28603516 -12.40921875 0.13457031 -11.4609375 -0.02148438 C-10.12675781 -0.2293457 -10.12675781 -0.2293457 -8.765625 -0.44140625 C-7.94868164 -0.57232666 -7.13173828 -0.70324707 -6.29003906 -0.83813477 C-3.93889793 -1.00431883 -2.23573504 -0.70259545 0 0 Z " fill="#4992B9" transform="translate(1031,487)"/>
<path d="M0 0 C0.89460938 -0.00128906 1.78921875 -0.00257813 2.7109375 -0.00390625 C3.65195313 -0.00003906 4.59296875 0.00382812 5.5625 0.0078125 C6.97402344 0.00201172 6.97402344 0.00201172 8.4140625 -0.00390625 C9.75597656 -0.00197266 9.75597656 -0.00197266 11.125 0 C11.95128906 0.00112793 12.77757812 0.00225586 13.62890625 0.00341797 C15.5625 0.1328125 15.5625 0.1328125 16.5625 1.1328125 C16.63508946 3.31920703 16.64623783 5.50781639 16.625 7.6953125 C16.61597656 8.89285156 16.60695313 10.09039062 16.59765625 11.32421875 C16.58605469 12.25105469 16.57445312 13.17789062 16.5625 14.1328125 C11.93433267 16.48863315 7.80715865 16.36802719 2.75 16.2578125 C1.56760742 16.24427734 1.56760742 16.24427734 0.36132812 16.23046875 C-1.57174666 16.20703754 -3.5046638 16.17117088 -5.4375 16.1328125 C-5.46435095 13.65357449 -5.48426547 11.1746241 -5.5 8.6953125 C-5.51256836 7.63473633 -5.51256836 7.63473633 -5.52539062 6.55273438 C-5.53403588 4.74587691 -5.48970011 2.93893647 -5.4375 1.1328125 C-3.84812444 -0.45656306 -2.19850154 0.00300107 0 0 Z M-4.4375 1.1328125 C-4.4375 5.4228125 -4.4375 9.7128125 -4.4375 14.1328125 C0.5125 14.1328125 5.4625 14.1328125 10.5625 14.1328125 C10.5625 9.8428125 10.5625 5.5528125 10.5625 1.1328125 C5.6125 1.1328125 0.6625 1.1328125 -4.4375 1.1328125 Z " fill="#F4BE5D" transform="translate(1232.4375,399.8671875)"/>
<path d="M0 0 C0.66 0.33 1.32 0.66 2 1 C2 14.2 2 27.4 2 41 C1.67 41 1.34 41 1 41 C0.505 33.575 0.505 33.575 0 26 C-0.33 31.94 -0.66 37.88 -1 44 C-1.33 44 -1.66 44 -2 44 C-2 29.81 -2 15.62 -2 1 C-1.34 0.67 -0.68 0.34 0 0 Z " fill="#073365" transform="translate(1031,600)"/>
<path d="M0 0 C2.375 2 2.375 2 4 4 C2.02 4.99 2.02 4.99 0 6 C0.020625 6.969375 0.04125 7.93875 0.0625 8.9375 C0 12 0 12 -1 13 C-3.4375 13.1875 -3.4375 13.1875 -6 13 C-8 11 -8 11 -8.125 7.875 C-8.08375 6.92625 -8.0425 5.9775 -8 5 C-8.66 5 -9.32 5 -10 5 C-10.33 7.31 -10.66 9.62 -11 12 C-11.66 12 -12.32 12 -13 12 C-12.82132624 7.44381905 -12.43997667 5.48090473 -9.3125 2.0625 C-5.69453868 -0.1901929 -4.15856452 -0.81363219 0 0 Z " fill="#1A2A34" transform="translate(1056,396)"/>
<path d="M0 0 C36.63 0 73.26 0 111 0 C111 0.33 111 0.66 111 1 C110.44008677 1.00331015 109.88017353 1.00662029 109.30329323 1.01003075 C95.69147856 1.09118298 82.07977746 1.18337603 68.46811867 1.28752708 C61.88566842 1.3375576 55.30323476 1.38388691 48.72070312 1.421875 C42.37291559 1.45864259 36.02526456 1.50497899 29.67759323 1.55806351 C27.25102499 1.57665292 24.82442743 1.59174389 22.3978157 1.60334396 C19.00937041 1.62012877 15.62124092 1.64914473 12.23291016 1.68115234 C11.22087021 1.68331253 10.20883026 1.68547272 9.16612244 1.68769836 C8.24623032 1.69886185 7.3263382 1.71002533 6.37857056 1.7215271 C5.17563071 1.72982324 5.17563071 1.72982324 3.94838905 1.73828697 C1.76447353 1.83107469 1.76447353 1.83107469 0 4 C0 2.68 0 1.36 0 0 Z " fill="#494A4A" transform="translate(1074,405)"/>
<path d="M0 0 C3.31248187 -0.02888146 6.62493167 -0.04675799 9.9375 -0.0625 C10.88302734 -0.07087891 11.82855469 -0.07925781 12.80273438 -0.08789062 C14.15141602 -0.09272461 14.15141602 -0.09272461 15.52734375 -0.09765625 C16.77632446 -0.10551147 16.77632446 -0.10551147 18.05053711 -0.11352539 C20 0 20 0 21 1 C21.09909302 3.33160055 21.12970504 5.66629942 21.125 8 C21.12886719 9.918125 21.12886719 9.918125 21.1328125 11.875 C21 15 21 15 20 16 C18.5112814 16.08669432 17.018555 16.10703494 15.52734375 16.09765625 C14.62822266 16.09443359 13.72910156 16.09121094 12.80273438 16.08789062 C11.85720703 16.07951172 10.91167969 16.07113281 9.9375 16.0625 C8.98810547 16.05798828 8.03871094 16.05347656 7.06054688 16.04882812 C4.70696935 16.0370011 2.35351523 16.02052025 0 16 C0 15.67 0 15.34 0 15 C5.28 15 10.56 15 16 15 C16 10.38 16 5.76 16 1 C10.72 1 5.44 1 0 1 C0 0.67 0 0.34 0 0 Z " fill="#F8D67C" transform="translate(1228,506)"/>
<path d="M0 0 C0.33 0 0.66 0 1 0 C1.07431132 5.17778402 1.12867808 10.35525569 1.16479492 15.53344727 C1.17985553 17.29391896 1.20030826 19.0543533 1.22631836 20.81469727 C1.26282229 23.34921503 1.27975354 25.88323552 1.29296875 28.41796875 C1.30845261 29.20149216 1.32393646 29.98501556 1.33988953 30.7922821 C1.34129105 35.37175679 0.86222125 38.36034063 -2 42 C-2.33 42 -2.66 42 -3 42 C-3 28.8 -3 15.6 -3 2 C-2.67 2 -2.34 2 -2 2 C-1.67 10.25 -1.34 18.5 -1 27 C-0.67 18.09 -0.34 9.18 0 0 Z " fill="#083566" transform="translate(1032,491)"/>
<path d="M0 0 C2.31 0 4.62 0 7 0 C7 4.62 7 9.24 7 14 C4.69 14 2.38 14 0 14 C0 9.38 0 4.76 0 0 Z " fill="#06A084" transform="translate(1066,559)"/>
<path d="M0 0 C2.475 0.495 2.475 0.495 5 1 C5 5.62 5 10.24 5 15 C2.65147472 16.17426264 1.26225935 16.11508173 -1.3515625 16.09765625 C-2.20234375 16.09443359 -3.053125 16.09121094 -3.9296875 16.08789062 C-4.81914063 16.07951172 -5.70859375 16.07113281 -6.625 16.0625 C-7.5221875 16.05798828 -8.419375 16.05347656 -9.34375 16.04882812 C-11.56256648 16.03702591 -13.78125018 16.02056155 -16 16 C-16 15.67 -16 15.34 -16 15 C-10.72 15 -5.44 15 0 15 C0 10.05 0 5.1 0 0 Z " fill="#FBDC84" transform="translate(1244,616)"/>
<path d="M0 0 C2.475 0.495 2.475 0.495 5 1 C5 5.29 5 9.58 5 14 C3.35 14.33 1.7 14.66 0 15 C0 10.05 0 5.1 0 0 Z " fill="#FADC7D" transform="translate(1244,400)"/>
<path d="M0 0 C1.58206057 0.00667536 3.16410534 0.0186375 4.74609375 0.03515625 C5.55240234 0.03966797 6.35871094 0.04417969 7.18945312 0.04882812 C9.18753131 0.06065107 11.18557158 0.07858711 13.18359375 0.09765625 C13.18359375 0.42765625 13.18359375 0.75765625 13.18359375 1.09765625 C7.90359375 1.09765625 2.62359375 1.09765625 -2.81640625 1.09765625 C-2.81640625 4.72765625 -2.81640625 8.35765625 -2.81640625 12.09765625 C-1.47578125 12.07703125 -0.13515625 12.05640625 1.24609375 12.03515625 C5.33440064 12.02868741 9.15740294 12.41234718 13.18359375 13.09765625 C13.18359375 13.42765625 13.18359375 13.75765625 13.18359375 14.09765625 C10.37103094 14.12449937 7.55872134 14.14441813 4.74609375 14.16015625 C3.94365234 14.16853516 3.14121094 14.17691406 2.31445312 14.18554688 C0.27064154 14.19417055 -1.77324527 14.14993775 -3.81640625 14.09765625 C-4.81640625 13.09765625 -4.81640625 13.09765625 -4.94921875 10.41015625 C-4.94664063 9.31703125 -4.9440625 8.22390625 -4.94140625 7.09765625 C-4.94398437 6.00453125 -4.9465625 4.91140625 -4.94921875 3.78515625 C-4.74131038 -0.42193072 -4.40968229 0.11283732 0 0 Z " fill="#255B93" transform="translate(1046.81640625,558.90234375)"/>
<path d="M0 0 C0 1.32 0 2.64 0 4 C-5.94 4 -11.88 4 -18 4 C-14.77105344 0.77105344 -13.3113656 0.26005786 -9 -0.8125 C-7.948125 -1.08707031 -6.89625 -1.36164062 -5.8125 -1.64453125 C-3 -2 -3 -2 0 0 Z " fill="#1F518C" transform="translate(1131,591)"/>
<path d="M0 0 C0.33 0 0.66 0 1 0 C1.01458252 0.58491211 1.02916504 1.16982422 1.04418945 1.77246094 C1.1188357 4.43229397 1.21543899 7.09089448 1.3125 9.75 C1.33505859 10.67039062 1.35761719 11.59078125 1.38085938 12.5390625 C1.41630859 13.42851562 1.45175781 14.31796875 1.48828125 15.234375 C1.51446533 16.05131836 1.54064941 16.86826172 1.56762695 17.70996094 C2.08684058 20.45994617 3.19083451 21.90229473 5 24 C4.34 24 3.68 24 3 24 C3 25.65 3 27.3 3 29 C2.34 29 1.68 29 1 29 C1 33.29 1 37.58 1 42 C0.67 42 0.34 42 0 42 C-0.99371474 27.90453858 -0.89190447 14.10058495 0 0 Z " fill="#36709B" transform="translate(1269,385)"/>
<path d="M0 0 C0.66 0 1.32 0 2 0 C2 4.29 2 8.58 2 13 C3.629375 12.979375 5.25875 12.95875 6.9375 12.9375 C12.04154533 12.93088854 16.94229389 13.33669428 22 14 C22 14.33 22 14.66 22 15 C18.52085059 15.02887814 15.04173169 15.04675687 11.5625 15.0625 C10.07266602 15.07506836 10.07266602 15.07506836 8.55273438 15.08789062 C7.60849609 15.09111328 6.66425781 15.09433594 5.69140625 15.09765625 C4.81685791 15.10289307 3.94230957 15.10812988 3.04125977 15.11352539 C1 15 1 15 0 14 C-0.07271741 11.64686445 -0.08370868 9.29166332 -0.0625 6.9375 C-0.05347656 5.64714844 -0.04445313 4.35679687 -0.03515625 3.02734375 C-0.02355469 2.02832031 -0.01195312 1.02929688 0 0 Z " fill="#2DB2B5" transform="translate(1199,617)"/>
<path d="M0 0 C0.33 0 0.66 0 1 0 C1.33 7.59 1.66 15.18 2 23 C2.99 23.33 3.98 23.66 5 24 C2.625 23.75 2.625 23.75 0 23 C-1.86106753 20.15469528 -2.22399595 18.06071361 -2.01171875 14.70703125 C-1.96466797 13.91232422 -1.91761719 13.11761719 -1.86914062 12.29882812 C-1.80919922 11.47833984 -1.74925781 10.65785156 -1.6875 9.8125 C-1.61499023 8.56436523 -1.61499023 8.56436523 -1.54101562 7.29101562 C-1.14532747 1.14532747 -1.14532747 1.14532747 0 0 Z " fill="#0C3C70" transform="translate(1031,625)"/>
<path d="M0 0 C2 3.875 2 3.875 2 5 C-3.94 5 -9.88 5 -16 5 C-15.67 4.34 -15.34 3.68 -15 3 C-12.4684134 2.36198164 -10.00160498 1.83312632 -7.4375 1.375 C-6.37112305 1.17390625 -6.37112305 1.17390625 -5.28320312 0.96875 C-3.52357447 0.63808153 -1.76195452 0.31804233 0 0 Z " fill="#9CBCD9" transform="translate(1129,480)"/>
<path d="M0 0 C0.99 0 1.98 0 3 0 C3.66 2.64 4.32 5.28 5 8 C2.69 8.33 0.38 8.66 -2 9 C-2.25 3.375 -2.25 3.375 0 0 Z " fill="#0B73A9" transform="translate(1234,370)"/>
<path d="M0 0 C1.65 0 3.3 0 5 0 C5 3.96 5 7.92 5 12 C3.35 11.67 1.7 11.34 0 11 C0.08378906 10.37351562 0.16757813 9.74703125 0.25390625 9.1015625 C0.35574219 8.28429687 0.45757813 7.46703125 0.5625 6.625 C0.66691406 5.81289063 0.77132813 5.00078125 0.87890625 4.1640625 C1.18237328 1.95100814 1.18237328 1.95100814 0 0 Z " fill="#1169AA" transform="translate(1056,560)"/>
<path d="M0 0 C2.625 0.375 2.625 0.375 5 1 C5.042721 2.66611905 5.04063832 4.33382885 5 6 C4 7 4 7 1.4375 7.0625 C0.2309375 7.0315625 0.2309375 7.0315625 -1 7 C-1.625 4.625 -1.625 4.625 -2 2 C-1.34 1.34 -0.68 0.68 0 0 Z " fill="#008B8B" transform="translate(1051,618)"/>
<path d="M0 0 C2.625 0.375 2.625 0.375 5 1 C5.042721 2.66611905 5.04063832 4.33382885 5 6 C4 7 4 7 1.4375 7.0625 C0.2309375 7.0315625 0.2309375 7.0315625 -1 7 C-1.625 4.625 -1.625 4.625 -2 2 C-1.34 1.34 -0.68 0.68 0 0 Z " fill="#008E98" transform="translate(1051,402)"/>
<path d="M0 0 C0.99 0.33 1.98 0.66 3 1 C3 5.29 3 9.58 3 14 C2.01 14 1.02 14 0 14 C0 9.38 0 4.76 0 0 Z " fill="#F8DE8D" transform="translate(1093,559)"/>
<path d="M0 0 C1.67542976 0.28604898 3.34385343 0.61781233 5 1 C5 2.65 5 4.3 5 6 C2.625 6.625 2.625 6.625 0 7 C-0.66 6.34 -1.32 5.68 -2 5 C-1.46428571 1.46428571 -1.46428571 1.46428571 0 0 Z " fill="#01858E" transform="translate(1051,508)"/>
<path d="M0 0 C-0.66 0 -1.32 0 -2 0 C-2 1.98 -2 3.96 -2 6 C-7.94 6 -13.88 6 -20 6 C-20 5.67 -20 5.34 -20 5 C-13.565 4.505 -13.565 4.505 -7 4 C-6.67 2.68 -6.34 1.36 -6 0 C-3.50907189 -1.24546405 -2.58919267 -0.7767578 0 0 Z " fill="#0C6A9F" transform="translate(1031,487)"/>
<path d="M0 0 C1.65 0 3.3 0 5 0 C5.33 1.65 5.66 3.3 6 5 C3.625 5.625 3.625 5.625 1 6 C0.34 5.34 -0.32 4.68 -1 4 C-0.625 1.875 -0.625 1.875 0 0 Z " fill="#BCD2EB" transform="translate(1049,455)"/>
<path d="M0 0 C1.32 0.33 2.64 0.66 4 1 C4 4 4 4 3 7 C0.69 7 -1.62 7 -4 7 C-3.34 6.67 -2.68 6.34 -2 6 C-2 4.68 -2 3.36 -2 2 C-1.34 2 -0.68 2 0 2 C0 1.34 0 0.68 0 0 Z " fill="#0D508B" transform="translate(1031,485)"/>
<path d="M0 0 C1.32 0.33 2.64 0.66 4 1 C3.51917969 1.39832031 3.03835938 1.79664063 2.54296875 2.20703125 C0.62608175 4.43450247 0.52258357 5.78834669 0.3125 8.6875 C0.21388672 9.89986328 0.21388672 9.89986328 0.11328125 11.13671875 C0.07589844 11.75160156 0.03851562 12.36648438 0 13 C-0.66 12.67 -1.32 12.34 -2 12 C-2.05422947 10.5629191 -2.09289723 9.12524538 -2.125 7.6875 C-2.14820313 6.88699219 -2.17140625 6.08648437 -2.1953125 5.26171875 C-2 3 -2 3 0 0 Z " fill="#1E426E" transform="translate(1044,450)"/>
<path d="M0 0 C0.99 0.66 1.98 1.32 3 2 C3 2.99 3 3.98 3 5 C0.03 5 -2.94 5 -6 5 C-6 4.34 -6 3.68 -6 3 C-4.02 2.01 -2.04 1.02 0 0 Z " fill="#2C5F98" transform="translate(1128,589)"/>
<path d="M0 0 C0.66 0 1.32 0 2 0 C0.59155282 3.21524305 -1.10344786 5.32183868 -3.625 7.75 C-4.57246094 8.67039062 -4.57246094 8.67039062 -5.5390625 9.609375 C-6.02117188 10.06828125 -6.50328125 10.5271875 -7 11 C-7.66 10.67 -8.32 10.34 -9 10 C-7.5484451 8.32742645 -6.08855591 6.66208242 -4.625 5 C-3.81289063 4.071875 -3.00078125 3.14375 -2.1640625 2.1875 C-1.44992187 1.465625 -0.73578125 0.74375 0 0 Z " fill="#1987B7" transform="translate(1026,317)"/>
<path d="M0 0 C0.99 0.33 1.98 0.66 3 1 C1.71520959 2.50589388 0.42195918 4.00457375 -0.875 5.5 C-1.95394531 6.75296875 -1.95394531 6.75296875 -3.0546875 8.03125 C-3.69664062 8.6809375 -4.33859375 9.330625 -5 10 C-5.66 10 -6.32 10 -7 10 C-5.6062718 5.56541027 -3.39417765 3.12621626 0 0 Z " fill="#1E416E" transform="translate(644,471)"/>
<path d="M0 0 C3.96 0 7.92 0 12 0 C12 0.33 12 0.66 12 1 C9.36 1 6.72 1 4 1 C4 2.32 4 3.64 4 5 C3.01 5 2.02 5 1 5 C0.67 3.35 0.34 1.7 0 0 Z " fill="#C6E7F1" transform="translate(1003,488)"/>
<path d="M0 0 C0.99 0.33 1.98 0.66 3 1 C3 2.98 3 4.96 3 7 C1.02 7.99 1.02 7.99 -1 9 C-0.67 6.03 -0.34 3.06 0 0 Z " fill="#E1E7E9" transform="translate(1062,564)"/>
<path d="M0 0 C0.66 0.33 1.32 0.66 2 1 C-0.31 3.64 -2.62 6.28 -5 9 C-5.66 8.67 -6.32 8.34 -7 8 C-4.69 5.36 -2.38 2.72 0 0 Z " fill="#26456F" transform="translate(384,470)"/>
<path d="M0 0 C0.99 0.33 1.98 0.66 3 1 C0.69 3.31 -1.62 5.62 -4 8 C-4.66 7.34 -5.32 6.68 -6 6 C-4.02 4.02 -2.04 2.04 0 0 Z " fill="#1B87B7" transform="translate(968,389)"/>
<path d="M0 0 C-1.04874998 2.62187494 -1.64931313 3.79371361 -4.125 5.25 C-4.74375 5.4975 -5.3625 5.745 -6 6 C-3.84615385 0 -3.84615385 0 0 0 Z " fill="#1F4B7D" transform="translate(1035,595)"/>
<path d="M0 0 C1.98 0 3.96 0 6 0 C5.34 1.32 4.68 2.64 4 4 C2.68 4 1.36 4 0 4 C0 2.68 0 1.36 0 0 Z " fill="#2F94BB" transform="translate(1007,489)"/>
<path d="M0 0 C0.99 0.33 1.98 0.66 3 1 C3 1.66 3 2.32 3 3 C0.69 3.33 -1.62 3.66 -4 4 C-2.68 2.68 -1.36 1.36 0 0 Z " fill="#085C94" transform="translate(1236,375)"/>
</svg>
